<?xml version="1.0" encoding="utf-8"?>
<!-- Generator: Adobe Illustrator 21.0.2, SVG Export Plug-In . SVG Version: 6.00 Build 0)  -->
<svg version="1.1" id="Layer_1" xmlns="http://www.w3.org/2000/svg" xmlns:xlink="http://www.w3.org/1999/xlink" x="0px" y="0px"
	 viewBox="0 0 800 633" style="enable-background:new 0 0 800 633;" xml:space="preserve">
<style type="text/css">
	.st0{fill:#FFFFFF;stroke:#404040;stroke-width:4;stroke-linecap:round;stroke-linejoin:round;stroke-miterlimit:10;}
	.st1{fill:#B3E3FF;stroke:#404040;stroke-width:4;stroke-miterlimit:10;}
	.st2{fill:#404040;}
	.st3{fill:#FFFFFF;stroke:#59AFE1;stroke-width:4;stroke-miterlimit:10;}
	.st4{fill:#FFFFFF;stroke:#404040;stroke-width:4;stroke-miterlimit:10;}
	.st5{fill:#4ED1A1;stroke:#404040;stroke-width:4;stroke-miterlimit:10;}
	.st6{fill:none;stroke:#404040;stroke-width:4;stroke-linecap:round;stroke-linejoin:round;stroke-miterlimit:10;}
</style>
<g id="migrating_x5F_overview_x5F_4">
	<path class="st0" d="M134.5,528.7c3.1,6.8,9.9,11.2,17.3,11.2c7.5,0,14.3-4.4,17.4-11.3"/>
	<path class="st1" d="M151.9,573c0,0,27.4,0.8,37.7-5.2c17-9.9-0.3-30.2-13.7-33.6c-4.1,7.7-13.3,13-24,13h0.3
		c-10.7,0-19.8-5.4-24-13c-13.4,3.4-30.7,23.8-13.7,33.6c10.3,6,37.7,5.2,37.7,5.2"/>
	<circle class="st1" cx="151.8" cy="503.3" r="23"/>
	<path class="st0" d="M161.9,482.6c-6.7,17.2-19.4,0.5-32.6,25.5c2.2,10.4,11.4,18.2,22.5,18.2c12.7,0,23-10.3,23-23
		C174.8,502,163.7,497.4,161.9,482.6L161.9,482.6z M164.3,522.6v11.6 M139.7,534.2v-11.3"/>
	<path class="st1" d="M128.8,503.8c0,0,0,10.6,4.6,14.5c-3.6,1.7-11.6-0.9-10.5-1.7C127.4,513.4,128.8,503.8,128.8,503.8z
		 M174.8,503.3c0,0-0.2,11.1-4.8,15c3.6,1.7,11.6-0.9,10.5-1.7C176,513.4,174.8,503.3,174.8,503.3z"/>
	<path class="st2" d="M127.4,602.9v-8.3l-3.6,8.3h-1.3l-3.6-8.3v8.3h-1.5v-10.6h2l3.8,8.7l3.8-8.7h2v10.6H127.4z M132.8,592
		c0.6,0,1,0.4,1,1s-0.5,1-1,1c-0.6,0-1-0.5-1-1C131.8,592.4,132.2,592,132.8,592z M132.1,602.9v-7.2h1.4v7.2H132.1z M137.5,603
		c0.1,1,0.9,1.8,2,1.8c1.5,0,2.2-0.8,2.2-2.3v-1c-0.3,0.7-1.1,1.2-2.2,1.2c-1.9,0-3.3-1.5-3.3-3.5s1.3-3.5,3.3-3.5
		c1.1,0,1.9,0.4,2.2,1.1v-1h1.4v6.7c0,1.8-0.9,3.6-3.6,3.6c-1.8,0-3.2-1.1-3.3-2.7L137.5,603L137.5,603z M141.7,599.1
		c0-1.4-0.8-2.3-2.1-2.3c-1.2,0-2.1,0.9-2.1,2.3s0.8,2.3,2.1,2.3S141.7,600.5,141.7,599.1z M150.1,597.1h-0.6c-1.2,0-2,0.6-2,2.2
		v3.6h-1.4v-7.2h1.4v1.3c0.5-1.1,1.4-1.4,2.2-1.4h0.5L150.1,597.1L150.1,597.1z M154.1,598.8l2-0.3c0.4-0.1,0.6-0.3,0.6-0.5
		c0-0.7-0.5-1.3-1.6-1.3c-1,0-1.5,0.6-1.6,1.5l-1.4-0.3c0.2-1.4,1.4-2.3,3-2.3c2.2,0,3,1.2,3,2.6v3.6c0,0.6,0.1,1,0.1,1.2h-1.4
		c0-0.2-0.1-0.5-0.1-1c-0.3,0.5-1,1.2-2.3,1.2c-1.5,0-2.4-1-2.4-2.2C151.9,599.7,152.8,599,154.1,598.8L154.1,598.8z M156.6,599.8
		v-0.3l-2.2,0.3c-0.6,0.1-1.1,0.4-1.1,1.1c0,0.5,0.5,1,1.2,1C155.6,602,156.6,601.4,156.6,599.8z M162.8,595.7h1.6v1.3h-1.6v3.8
		c0,0.7,0.3,1,1,1c0.2,0,0.4,0,0.6-0.1v1.2c-0.1,0-0.5,0.1-1,0.1c-1.2,0-2-0.8-2-2.1v-4H160v-1.3h0.4c0.8,0,1.1-0.5,1.1-1.1v-1.2
		h1.3L162.8,595.7L162.8,595.7z M167.7,592c0.6,0,1,0.4,1,1s-0.5,1-1,1c-0.6,0-1-0.5-1-1C166.7,592.4,167.1,592,167.7,592z
		 M167,602.9v-7.2h1.4v7.2H167z M178.3,599.3c0,2.2-1.5,3.8-3.7,3.8s-3.7-1.6-3.7-3.8s1.5-3.8,3.7-3.8S178.3,597.1,178.3,599.3z
		 M176.9,599.3c0-1.7-1-2.6-2.2-2.6s-2.2,0.9-2.2,2.6c0,1.7,1.1,2.6,2.2,2.6S176.9,601,176.9,599.3z M182.3,602.9h-1.4v-7.2h1.4v1
		c0.5-0.9,1.4-1.2,2.2-1.2c1.7,0,2.6,1.2,2.6,2.8v4.6h-1.4v-4.3c0-1-0.4-1.8-1.7-1.8c-1.1,0-1.7,0.9-1.7,2L182.3,602.9L182.3,602.9z
		 M137.8,620.9V610h1.4v10.9H137.8z M148.7,618.9c-0.4,1.3-1.6,2.3-3.2,2.3c-1.9,0-3.6-1.4-3.6-3.9c0-2.3,1.6-3.8,3.5-3.8
		c2.2,0,3.5,1.5,3.5,3.8v0.4h-5.4c0,1.3,1,2.2,2.2,2.2s1.8-0.6,2-1.5L148.7,618.9z M147.2,616.6c0-1-0.7-1.8-2-1.8
		c-1.2,0-1.9,0.9-2,1.8H147.2z M153,616.8l2-0.3c0.4-0.1,0.6-0.3,0.6-0.5c0-0.7-0.5-1.3-1.6-1.3c-1,0-1.5,0.6-1.6,1.5l-1.3-0.3
		c0.1-1.4,1.4-2.3,3-2.3c2.2,0,3,1.2,3,2.6v3.6c0,0.6,0.1,1,0.1,1.2h-1.4c0-0.2-0.1-0.5-0.1-1c-0.3,0.5-1,1.2-2.3,1.2
		c-1.5,0-2.4-1-2.4-2.2C150.8,617.7,151.7,617,153,616.8z M155.5,617.8v-0.3l-2.2,0.3c-0.6,0.1-1.1,0.4-1.1,1.1c0,0.5,0.5,1,1.2,1
		C154.6,620,155.5,619.4,155.5,617.8z M164.9,619.8c-0.3,0.7-1.1,1.3-2.2,1.3c-2.1,0-3.4-1.7-3.4-3.8c0-2,1.4-3.8,3.4-3.8
		c1.3,0,2,0.6,2.2,1.2V610h1.4v9.5c0,0.7,0.1,1.2,0.1,1.3H165C165,620.6,164.9,620.3,164.9,619.8z M162.8,619.9
		c1.3,0,2.1-1.1,2.1-2.6s-0.8-2.5-2.1-2.5s-2.1,1.1-2.1,2.5S161.4,619.9,162.8,619.9z M321.2,602.9v-10.6h1.5v9.3h5v1.4h-6.5V602.9z
		 M336.7,599.3c0,2.2-1.5,3.8-3.7,3.8s-3.7-1.6-3.7-3.8s1.5-3.8,3.7-3.8S336.7,597.1,336.7,599.3z M335.3,599.3
		c0-1.7-1.1-2.6-2.2-2.6c-1.2,0-2.2,0.9-2.2,2.6c0,1.7,1,2.6,2.2,2.6C334.2,601.9,335.3,601,335.3,599.3z M340.1,599.3
		c0,1.6,1,2.5,2.2,2.5c1.3,0,1.8-0.9,2-1.5l1.2,0.5c-0.3,1-1.4,2.2-3.3,2.2c-2.1,0-3.6-1.7-3.6-3.8c0-2.2,1.6-3.8,3.6-3.8
		c1.9,0,2.9,1.2,3.2,2.3l-1.3,0.5c-0.2-0.7-0.7-1.5-1.9-1.5C341.2,596.8,340.1,597.6,340.1,599.3L340.1,599.3z M349.6,598.8l1.9-0.3
		c0.4-0.1,0.6-0.3,0.6-0.5c0-0.7-0.5-1.3-1.6-1.3c-1,0-1.5,0.6-1.6,1.5l-1.4-0.3c0.2-1.4,1.4-2.3,3-2.3c2.2,0,3,1.2,3,2.6v3.6
		c0,0.6,0.1,1,0.1,1.2h-1.4c0-0.2-0.1-0.5-0.1-1c-0.3,0.5-1,1.2-2.3,1.2c-1.5,0-2.4-1-2.4-2.2C347.4,599.7,348.4,599,349.6,598.8
		L349.6,598.8z M352.1,599.8v-0.3l-2.2,0.3c-0.6,0.1-1,0.4-1,1.1c0,0.5,0.4,1,1.2,1C351.2,602,352.1,601.4,352.1,599.8z
		 M356.5,602.9V592h1.4v10.9H356.5z M318.5,620.9l-0.1-1.5c-0.5,0.8-1.6,1.7-3.4,1.7c-2.7,0-5.2-2-5.2-5.6s2.6-5.5,5.3-5.5
		c2.3,0,4.1,1.3,4.7,3.2l-1.3,0.6c-0.5-1.5-1.7-2.4-3.4-2.4c-1.9,0-3.8,1.4-3.8,4.2s1.8,4.2,3.7,4.2c2.4,0,3.2-1.7,3.3-2.8h-3.7
		v-1.3h5.1v5.2L318.5,620.9L318.5,620.9z M323.3,610c0.6,0,1,0.4,1,1s-0.5,1-1,1c-0.6,0-1-0.5-1-1C322.3,610.4,322.7,610,323.3,610z
		 M322.6,620.9v-7.2h1.4v7.2H322.6z M329,613.7h1.6v1.3H329v3.8c0,0.7,0.3,1,1,1c0.2,0,0.4,0,0.6-0.1v1.2c-0.1,0-0.5,0.1-1,0.1
		c-1.2,0-2-0.8-2-2.1v-4h-1.4v-1.3h0.4c0.8,0,1.1-0.5,1.1-1.1v-1.2h1.3V613.7L329,613.7z M341.7,615.1h-0.6c-1.2,0-2,0.6-2,2.2v3.6
		h-1.4v-7.2h1.4v1.3c0.5-1.1,1.4-1.4,2.2-1.4h0.5v1.5L341.7,615.1z M350.2,618.9c-0.4,1.3-1.6,2.3-3.2,2.3c-1.9,0-3.6-1.4-3.6-3.9
		c0-2.3,1.6-3.8,3.4-3.8c2.2,0,3.5,1.5,3.5,3.8v0.4h-5.4c0,1.3,1,2.2,2.2,2.2s1.8-0.6,2-1.5L350.2,618.9z M348.7,616.6
		c0-1-0.7-1.8-2-1.8c-1.2,0-1.9,0.9-2,1.8H348.7z M352.8,623.8v-10.1h1.4v1.1c0.4-0.7,1.2-1.3,2.4-1.3c2.2,0,3.3,1.7,3.3,3.8
		s-1.2,3.8-3.4,3.8c-1.1,0-1.9-0.5-2.3-1.2v3.8h-1.4V623.8z M356.3,614.8c-1.3,0-2.1,1.1-2.1,2.5c0,1.5,0.9,2.5,2.1,2.5
		c1.3,0,2.1-1.1,2.1-2.5S357.6,614.8,356.3,614.8z M369.2,617.3c0,2.2-1.5,3.8-3.7,3.8s-3.7-1.6-3.7-3.8s1.5-3.8,3.7-3.8
		S369.2,615.1,369.2,617.3z M367.7,617.3c0-1.7-1-2.6-2.2-2.6s-2.2,0.9-2.2,2.6c0,1.7,1.1,2.6,2.2,2.6
		C366.7,619.9,367.7,619,367.7,617.3z"/>
	<path id="repo1_298_" class="st1" d="M307.6,545.4c0-6.3,14.2-11.3,31.8-11.3s31.8,5.1,31.8,11.3 M307.6,545.4v14.1
		c0,1.5,0.9,3,2.4,4.3c4.8,4.1,16.2,7,29.5,7s24.7-2.9,29.5-7c1.5-1.3,2.4-2.8,2.4-4.3v-14.1"/>
	<path class="st3" d="M371.3,545.4c0,6.3-14.2,11.3-31.8,11.3s-31.8-5.1-31.8-11.3c0-6.3,14.2-11.3,31.8-11.3
		C357,534,371.3,539.1,371.3,545.4z"/>
	<path id="repo1_297_" class="st1" d="M307.6,531.3c0-6.3,14.2-11.3,31.8-11.3s31.8,5.1,31.8,11.3 M307.6,531.3v14.1
		c0,1.5,0.9,3,2.4,4.3c4.8,4.1,16.2,7,29.5,7s24.7-2.9,29.5-7c1.5-1.3,2.4-2.8,2.4-4.3v-14.1"/>
	<path class="st3" d="M371.3,531.3c0,6.3-14.2,11.3-31.8,11.3s-31.8-5.1-31.8-11.3c0-6.3,14.2-11.3,31.8-11.3
		C357,519.9,371.3,525,371.3,531.3z"/>
	<path id="repo1_290_" class="st1" d="M307.6,517.2c0-6.3,14.2-11.3,31.8-11.3s31.8,5.1,31.8,11.3 M307.6,517.2v14.1
		c0,1.5,0.9,3,2.4,4.3c4.8,4.1,16.2,7,29.5,7s24.7-2.9,29.5-7c1.5-1.3,2.4-2.8,2.4-4.3v-14.1"/>
	<path class="st4" d="M371.3,517.2c0,6.3-14.2,11.3-31.8,11.3s-31.8-5.1-31.8-11.3c0-6.3,14.2-11.3,31.8-11.3
		C357,505.8,371.3,510.9,371.3,517.2z"/>
	<path class="st2" d="M313,367.6c0-3.6,2.6-5.5,5.3-5.5c2.4,0,4.1,1.3,4.7,3.4l-1.4,0.5c-0.4-1.6-1.6-2.5-3.3-2.5
		c-1.9,0-3.8,1.4-3.8,4.2c0,2.8,1.8,4.2,3.8,4.2c1.8,0,3-1.1,3.4-2.5l1.3,0.5c-0.6,2-2.2,3.4-4.7,3.4
		C315.5,373.2,313,371.2,313,367.6z M331.5,370.9c-0.4,1.3-1.6,2.3-3.2,2.3c-1.9,0-3.6-1.4-3.6-3.9c0-2.3,1.6-3.8,3.5-3.8
		c2.2,0,3.5,1.5,3.5,3.8v0.4h-5.4c0,1.3,1,2.2,2.2,2.2s1.8-0.6,2-1.5L331.5,370.9z M330.1,368.6c0-1-0.7-1.8-2-1.8
		c-1.2,0-1.9,0.9-2,1.8H330.1z M335.5,372.9h-1.4v-7.2h1.4v1c0.5-0.9,1.4-1.2,2.2-1.2c1.7,0,2.6,1.2,2.6,2.8v4.6h-1.4v-4.3
		c0-1-0.4-1.8-1.7-1.8c-1.1,0-1.7,0.9-1.7,2V372.9z M345.1,365.7h1.6v1.3h-1.6v3.8c0,0.7,0.3,1,1,1c0.2,0,0.4,0,0.6-0.1v1.2
		c-0.1,0-0.5,0.1-1,0.1c-1.2,0-2-0.8-2-2.1v-4h-1.4v-1.3h0.4c0.8,0,1.1-0.5,1.1-1.1v-1.2h1.3V365.7L345.1,365.7z M353.2,367.1h-0.6
		c-1.2,0-2,0.6-2,2.2v3.6h-1.4v-7.2h1.4v1.3c0.5-1.1,1.4-1.4,2.2-1.4h0.5v1.5H353.2z M357.2,368.8l1.9-0.3c0.4-0.1,0.6-0.3,0.6-0.5
		c0-0.7-0.5-1.3-1.6-1.3c-1,0-1.5,0.6-1.6,1.5l-1.4-0.3c0.2-1.4,1.4-2.3,3-2.3c2.2,0,3,1.2,3,2.6v3.6c0,0.6,0.1,1,0.1,1.2h-1.4
		c0-0.2-0.1-0.5-0.1-1c-0.3,0.5-1,1.2-2.3,1.2c-1.5,0-2.4-1-2.4-2.2C355,369.7,355.9,369,357.2,368.8L357.2,368.8z M359.7,369.8
		v-0.3l-2.2,0.3c-0.6,0.1-1,0.4-1,1.1c0,0.5,0.4,1,1.2,1C358.7,372,359.7,371.4,359.7,369.8z M364,372.9V362h1.4v10.9H364z
		 M311.2,383.2c-0.1-0.8-0.8-1.8-2.2-1.8c-1.2,0-2.1,0.8-2.1,1.8c0,0.8,0.5,1.3,1.4,1.5l1.6,0.3c1.8,0.4,2.8,1.5,2.8,3
		c0,1.7-1.4,3.2-3.7,3.2c-2.6,0-3.8-1.7-4-3.2l1.4-0.4c0.1,1.2,0.9,2.3,2.5,2.3c1.5,0,2.2-0.8,2.2-1.7c0-0.8-0.5-1.4-1.6-1.6
		l-1.5-0.3c-1.5-0.3-2.6-1.3-2.6-2.9c0-1.7,1.5-3.2,3.5-3.2c2.4,0,3.4,1.5,3.6,2.6L311.2,383.2L311.2,383.2z M322.2,380.3h1.5
		l-4.1,10.6h-1.5l-4-10.6h1.6l3.2,8.7L322.2,380.3z M333.2,390.9l-5.7-8.7v8.7H326v-10.6h2l5.3,8.2v-8.2h1.5v10.6H333.2L333.2,390.9
		z M346.5,385.1h-0.6c-1.2,0-2,0.6-2,2.2v3.6h-1.4v-7.2h1.4v1.3c0.5-1.1,1.4-1.4,2.2-1.4h0.5v1.5H346.5z M355,388.9
		c-0.4,1.3-1.6,2.3-3.2,2.3c-1.9,0-3.6-1.4-3.6-3.9c0-2.3,1.6-3.8,3.5-3.8c2.2,0,3.5,1.5,3.5,3.8v0.4h-5.4c0,1.3,1,2.2,2.2,2.2
		s1.8-0.6,2-1.5L355,388.9z M353.5,386.6c0-1-0.7-1.8-2-1.8c-1.2,0-1.9,0.9-2,1.8H353.5z M357.6,393.8v-10.1h1.4v1.1
		c0.4-0.7,1.2-1.3,2.4-1.3c2.2,0,3.3,1.7,3.3,3.8c0,2.1-1.2,3.8-3.4,3.8c-1.1,0-2-0.5-2.3-1.2v3.8h-1.4V393.8z M361.1,384.8
		c-1.3,0-2.1,1.1-2.1,2.5c0,1.5,0.9,2.5,2.1,2.5c1.3,0,2.1-1.1,2.1-2.5S362.4,384.8,361.1,384.8z M374,387.3c0,2.2-1.5,3.8-3.7,3.8
		s-3.7-1.6-3.7-3.8c0-2.2,1.5-3.8,3.7-3.8S374,385.1,374,387.3z M372.5,387.3c0-1.7-1-2.6-2.2-2.6s-2.2,0.9-2.2,2.6s1,2.6,2.2,2.6
		S372.5,389,372.5,387.3z M271.2,141.6V131h3.7c2.7,0,5.1,1.8,5.1,5.3s-2.4,5.3-5.1,5.3H271.2z M274.8,140.3c2,0,3.6-1.3,3.6-4
		s-1.6-4-3.6-4h-2.2v8H274.8z M288.8,139.5c-0.4,1.3-1.6,2.3-3.2,2.3c-1.9,0-3.6-1.4-3.6-3.9c0-2.3,1.6-3.8,3.5-3.8
		c2.2,0,3.5,1.5,3.5,3.8v0.5h-5.4c0,1.3,1,2.2,2.2,2.2s1.8-0.6,2-1.5L288.8,139.5z M287.4,137.3c0-1-0.7-1.8-2-1.8
		c-1.2,0-1.9,0.9-2,1.8H287.4z M294.6,141.6h-1.4l-2.9-7.2h1.6l2.1,5.6l2.1-5.6h1.5L294.6,141.6L294.6,141.6z M305.6,139.5
		c-0.4,1.3-1.6,2.3-3.2,2.3c-1.9,0-3.6-1.4-3.6-3.9c0-2.3,1.6-3.8,3.5-3.8c2.2,0,3.5,1.5,3.5,3.8v0.5h-5.4c0,1.3,1,2.2,2.2,2.2
		s1.8-0.6,2-1.5L305.6,139.5z M304.2,137.3c0-1-0.7-1.8-2-1.8c-1.2,0-1.9,0.9-2,1.8H304.2z M308.2,141.6v-10.9h1.4v10.9H308.2z
		 M319.6,138c0,2.2-1.5,3.8-3.7,3.8s-3.7-1.6-3.7-3.8s1.5-3.8,3.7-3.8S319.6,135.8,319.6,138z M318.1,138c0-1.7-1.1-2.6-2.2-2.6
		c-1.2,0-2.2,0.9-2.2,2.6c0,1.7,1,2.6,2.2,2.6S318.1,139.7,318.1,138z M322.1,144.5v-10.1h1.4v1.1c0.4-0.7,1.2-1.3,2.4-1.3
		c2.2,0,3.3,1.7,3.3,3.8s-1.2,3.8-3.4,3.8c-1.1,0-2-0.5-2.3-1.2v3.8L322.1,144.5L322.1,144.5z M325.6,135.5c-1.3,0-2.1,1.1-2.1,2.5
		c0,1.5,0.9,2.6,2.1,2.6c1.3,0,2.1-1.1,2.1-2.6C327.8,136.5,327,135.5,325.6,135.5z M331.8,141.6v-7.2h1.3v1
		c0.5-0.8,1.3-1.2,2.2-1.2c0.9,0,1.8,0.4,2.2,1.4c0.6-1,1.5-1.4,2.4-1.4c1.3,0,2.5,0.9,2.5,2.7v4.7H341v-4.5c0-0.9-0.5-1.7-1.5-1.7
		s-1.7,0.8-1.7,1.8v4.4h-1.4v-4.5c0-0.9-0.5-1.7-1.5-1.7s-1.7,0.8-1.7,1.8v4.3L331.8,141.6L331.8,141.6z M351.6,139.5
		c-0.4,1.3-1.6,2.3-3.2,2.3c-1.9,0-3.6-1.4-3.6-3.9c0-2.3,1.6-3.8,3.5-3.8c2.2,0,3.5,1.5,3.5,3.8v0.5h-5.4c0,1.3,1,2.2,2.2,2.2
		s1.8-0.6,2-1.5L351.6,139.5z M350.2,137.3c0-1-0.7-1.8-2-1.8c-1.2,0-1.9,0.9-2,1.8H350.2z M355.7,141.6h-1.4v-7.2h1.4v1
		c0.5-0.9,1.4-1.2,2.2-1.2c1.7,0,2.6,1.2,2.6,2.9v4.6H359v-4.3c0-1-0.4-1.8-1.7-1.8c-1.1,0-1.7,0.9-1.7,2v4H355.7z M365.3,134.4h1.6
		v1.3h-1.6v3.8c0,0.7,0.3,1,1,1c0.2,0,0.4,0,0.6-0.1v1.2c-0.1,0-0.5,0.1-1,0.1c-1.2,0-2-0.8-2-2.1v-4h-1.4v-1.3h0.4
		c0.8,0,1.1-0.5,1.1-1.1V132h1.3V134.4L365.3,134.4z M375.9,134.4h1.6v1.3h-1.6v3.8c0,0.7,0.3,1,1,1c0.2,0,0.4,0,0.6-0.1v1.2
		c-0.1,0-0.5,0.1-1,0.1c-1.2,0-2-0.8-2-2.1v-4h-1.4v-1.3h0.4c0.8,0,1.1-0.5,1.1-1.1V132h1.3V134.4L375.9,134.4z M386.3,139.5
		c-0.4,1.3-1.6,2.3-3.2,2.3c-1.9,0-3.6-1.4-3.6-3.9c0-2.3,1.6-3.8,3.5-3.8c2.2,0,3.5,1.5,3.5,3.8v0.5h-5.4c0,1.3,1,2.2,2.2,2.2
		s1.8-0.6,2-1.5L386.3,139.5z M384.9,137.3c0-1-0.7-1.8-2-1.8c-1.2,0-1.9,0.9-2,1.8H384.9z M390.6,137.5l2-0.3
		c0.4-0.1,0.6-0.3,0.6-0.5c0-0.7-0.5-1.3-1.6-1.3c-1,0-1.5,0.6-1.6,1.5l-1.4-0.3c0.2-1.4,1.4-2.3,3-2.3c2.2,0,3,1.2,3,2.6v3.6
		c0,0.6,0.1,1,0.1,1.2h-1.4c0-0.2-0.1-0.5-0.1-1c-0.3,0.5-1,1.2-2.3,1.2c-1.5,0-2.4-1-2.4-2.2C388.4,138.4,389.4,137.7,390.6,137.5
		L390.6,137.5z M393.1,138.5v-0.3l-2.2,0.3c-0.6,0.1-1,0.4-1,1.1c0,0.5,0.5,1,1.2,1C392.2,140.6,393.1,140.1,393.1,138.5z
		 M397.5,141.6v-7.2h1.3v1c0.4-0.8,1.3-1.2,2.2-1.2c0.9,0,1.8,0.4,2.2,1.4c0.6-1,1.5-1.4,2.4-1.4c1.3,0,2.5,0.9,2.5,2.7v4.7h-1.4
		v-4.5c0-0.9-0.5-1.7-1.5-1.7s-1.7,0.8-1.7,1.8v4.4h-1.4v-4.5c0-0.9-0.5-1.7-1.5-1.7s-1.7,0.8-1.7,1.8v4.3L397.5,141.6L397.5,141.6z
		 M315.9,147.7l0.9,0.8c-1.5,1.7-2.5,3.8-2.5,6.4s1,4.7,2.5,6.4l-0.9,0.8c-1.6-1.6-2.9-3.9-2.9-7.2S314.3,149.3,315.9,147.7z
		 M320.4,155.5l2-0.3c0.4-0.1,0.6-0.3,0.6-0.5c0-0.7-0.5-1.3-1.6-1.3c-1,0-1.5,0.6-1.6,1.5l-1.3-0.3c0.2-1.4,1.4-2.3,3-2.3
		c2.2,0,3,1.2,3,2.6v3.6c0,0.6,0.1,1,0.1,1.2H323c0-0.2-0.1-0.5-0.1-1c-0.3,0.5-1,1.2-2.3,1.2c-1.5,0-2.4-1-2.4-2.2
		C318.2,156.4,319.1,155.7,320.4,155.5L320.4,155.5z M322.9,156.5v-0.3l-2.2,0.3c-0.6,0.1-1,0.4-1,1.1c0,0.5,0.5,1,1.2,1
		C322,158.6,322.9,158.1,322.9,156.5z M328.1,156c0,1.7,1,2.5,2.2,2.5c1.3,0,1.8-0.9,2-1.5l1.2,0.5c-0.3,1-1.4,2.2-3.3,2.2
		c-2.1,0-3.6-1.6-3.6-3.8s1.6-3.8,3.6-3.8c1.9,0,2.9,1.2,3.2,2.3l-1.3,0.5c-0.2-0.7-0.7-1.5-1.9-1.5
		C329.1,153.5,328.1,154.3,328.1,156L328.1,156z M337.8,152.4h1.6v1.3h-1.6v3.8c0,0.7,0.3,1,1,1c0.2,0,0.4,0,0.6-0.1v1.2
		c-0.1,0-0.5,0.1-1,0.1c-1.2,0-2-0.8-2-2.1v-4H335v-1.3h0.4c0.8,0,1.1-0.5,1.1-1.1V150h1.3V152.4L337.8,152.4z M342.7,148.6
		c0.6,0,1,0.5,1,1c0,0.6-0.5,1-1,1c-0.6,0-1-0.5-1-1S342.2,148.6,342.7,148.6z M342,159.6v-7.2h1.4v7.2H342z M349.9,159.6h-1.4
		l-2.9-7.2h1.6l2.1,5.6l2.1-5.6h1.5L349.9,159.6L349.9,159.6z M360.9,157.5c-0.4,1.3-1.6,2.3-3.2,2.3c-1.9,0-3.6-1.4-3.6-3.9
		c0-2.3,1.6-3.8,3.5-3.8c2.2,0,3.5,1.5,3.5,3.8v0.5h-5.4c0,1.3,1,2.2,2.2,2.2s1.8-0.6,2-1.5L360.9,157.5z M359.5,155.3
		c0-1-0.7-1.8-2-1.8c-1.2,0-1.9,0.9-2,1.8H359.5z M363,162l-0.9-0.8c1.5-1.7,2.5-3.8,2.5-6.4s-1-4.7-2.5-6.4l0.9-0.8
		c1.6,1.6,2.8,3.9,2.8,7.2S364.6,160.4,363,162z"/>
	<path id="repo1_289_" class="st5" d="M307.6,315.4c0-6.3,14.2-11.3,31.8-11.3s31.8,5.1,31.8,11.3 M307.6,315.4v14.1
		c0,1.5,0.9,3,2.4,4.3c4.8,4.1,16.2,7,29.5,7s24.7-2.9,29.5-7c1.5-1.3,2.4-2.8,2.4-4.3v-14.1"/>
	<path class="st3" d="M371.3,315.4c0,6.3-14.2,11.3-31.8,11.3s-31.8-5.1-31.8-11.3c0-6.3,14.2-11.3,31.8-11.3
		C357,304.1,371.3,309.1,371.3,315.4z"/>
	<path id="repo1_288_" class="st5" d="M307.6,301.3c0-6.3,14.2-11.3,31.8-11.3s31.8,5.1,31.8,11.3 M307.6,301.3v14.1
		c0,1.5,0.9,3,2.4,4.3c4.8,4.1,16.2,7,29.5,7s24.7-2.9,29.5-7c1.5-1.3,2.4-2.8,2.4-4.3v-14.1"/>
	<path class="st3" d="M371.3,301.3c0,6.3-14.2,11.3-31.8,11.3s-31.8-5.1-31.8-11.3c0-6.3,14.2-11.3,31.8-11.3
		C357,290,371.3,295,371.3,301.3z"/>
	<path id="repo1_287_" class="st5" d="M307.6,287.2c0-6.3,14.2-11.3,31.8-11.3s31.8,5.1,31.8,11.3 M307.6,287.2v14.1
		c0,1.5,0.9,3,2.4,4.3c4.8,4.1,16.2,7,29.5,7s24.7-2.9,29.5-7c1.5-1.3,2.4-2.8,2.4-4.3v-14.1"/>
	<path class="st4" d="M371.3,287.2c0,6.3-14.2,11.3-31.8,11.3s-31.8-5.1-31.8-11.3c0-6.3,14.2-11.3,31.8-11.3
		C357,275.9,371.3,280.9,371.3,287.2z"/>
	<path class="st6" d="M339.5,469.9v-43.5 M350.3,461.2l-10.8,10.9l-10.9-10.9 M271.7,539.3h-43.5 M263,528.5l10.8,10.9L263,550.2
		 M339.5,240.6v-43.5 M350.3,231.9l-10.8,10.8l-10.9-10.8 M328.6,204.5l10.9-10.9l10.8,10.9 M349.3,58.7c3.1,6.8,9.9,11.2,17.3,11.2
		c7.5,0,14.3-4.4,17.4-11.3"/>
	<path class="st5" d="M366.2,102.9c0,0,27.4,0.8,37.7-5.2c17-9.9-0.3-30.2-13.7-33.6c-4.1,7.7-13.3,13-24,13h0.3
		c-10.7,0-19.8-5.4-24-13c-13.4,3.4-30.7,23.8-13.7,33.6c10.3,6,37.7,5.2,37.7,5.2"/>
	<circle class="st5" cx="366.6" cy="33.2" r="23"/>
	<path class="st4" d="M377.3,21.1c2.6,20,7.9,2.4,11.8,17c-2.2,10.4-11.4,18.2-22.5,18.2c-12.7,0-23-10.3-23-23
		c0-1.3,0.1-2.6,0.3-3.9C345,29.4,370.1,40.4,377.3,21.1L377.3,21.1z"/>
	<path class="st6" d="M379.2,53.5v10.6 M354.6,64.1V53.8 M275.8,65.6c3.1,6.8,9.9,11.2,17.3,11.2c7.5,0,14.3-4.4,17.4-11.3"/>
	<path class="st5" d="M292.7,109.9c0,0,27.4,0.8,37.7-5.2c17-9.9-0.3-30.2-13.7-33.6c-4.1,7.7-13.3,13-24,13h0.3
		c-10.7,0-19.8-5.4-24-13c-13.4,3.4-30.7,23.8-13.7,33.6c10.3,6,37.7,5.2,37.7,5.2"/>
	<circle class="st5" cx="293.1" cy="40.2" r="23"/>
	<path class="st4" d="M277.6,23.2c2.6,20,34.1,7.2,38,21.8c-2.2,10.4-11.4,18.2-22.5,18.2c-12.7,0-23-10.3-23-23
		c0-1.3,0.1-2.6,0.3-3.9C271.5,36.3,278.5,40.2,277.6,23.2z"/>
	<path class="st6" d="M305.7,60.4V71 M281.1,71.1V60.8"/>
	<path class="st2" d="M600.2,390.9l-0.1-1.5c-0.5,0.8-1.6,1.7-3.4,1.7c-2.7,0-5.2-2-5.2-5.6s2.6-5.5,5.3-5.5c2.3,0,4.1,1.3,4.7,3.2
		l-1.3,0.6c-0.5-1.5-1.7-2.4-3.4-2.4c-1.9,0-3.8,1.4-3.8,4.2c0,2.8,1.8,4.2,3.7,4.2c2.4,0,3.2-1.7,3.3-2.8h-3.7v-1.3h5.1v5.2
		L600.2,390.9L600.2,390.9z M604.9,380c0.6,0,1,0.4,1,1s-0.5,1-1,1c-0.6,0-1-0.5-1-1C603.9,380.4,604.3,380,604.9,380z M604.2,390.9
		v-7.2h1.4v7.2H604.2z M610.6,383.7h1.6v1.3h-1.6v3.8c0,0.7,0.3,1,1,1c0.2,0,0.4,0,0.6-0.1v1.2c-0.1,0-0.5,0.1-1,0.1
		c-1.2,0-2-0.8-2-2.1v-4h-1.4v-1.3h0.4c0.8,0,1.1-0.5,1.1-1.1v-1.2h1.3L610.6,383.7L610.6,383.7z M623.3,385.1h-0.6
		c-1.2,0-2,0.6-2,2.2v3.6h-1.4v-7.2h1.4v1.3c0.5-1.1,1.4-1.4,2.2-1.4h0.5v1.5H623.3z M631.8,388.9c-0.4,1.3-1.6,2.3-3.2,2.3
		c-1.9,0-3.6-1.4-3.6-3.9c0-2.3,1.6-3.8,3.5-3.8c2.2,0,3.5,1.5,3.5,3.8v0.4h-5.4c0,1.3,1,2.2,2.2,2.2s1.8-0.6,2-1.5L631.8,388.9z
		 M630.4,386.6c0-1-0.7-1.8-2-1.8c-1.2,0-1.9,0.9-2,1.8H630.4z M634.4,393.8v-10.1h1.4v1.1c0.4-0.7,1.2-1.3,2.4-1.3
		c2.2,0,3.3,1.7,3.3,3.8c0,2.1-1.2,3.8-3.4,3.8c-1.1,0-2-0.5-2.3-1.2v3.8h-1.4V393.8z M637.9,384.8c-1.3,0-2.1,1.1-2.1,2.5
		c0,1.5,0.9,2.5,2.1,2.5c1.3,0,2.1-1.1,2.1-2.5S639.2,384.8,637.9,384.8z M650.8,387.3c0,2.2-1.5,3.8-3.7,3.8s-3.7-1.6-3.7-3.8
		c0-2.2,1.5-3.8,3.7-3.8S650.8,385.1,650.8,387.3z M649.4,387.3c0-1.7-1-2.6-2.2-2.6s-2.2,0.9-2.2,2.6s1,2.6,2.2,2.6
		S649.4,389,649.4,387.3z M552.8,141.6V131h3.7c2.7,0,5.1,1.8,5.1,5.3s-2.4,5.3-5.1,5.3H552.8z M556.4,140.3c2,0,3.6-1.3,3.6-4
		s-1.6-4-3.6-4h-2.2v8H556.4z M570.5,139.5c-0.4,1.3-1.6,2.3-3.2,2.3c-1.9,0-3.6-1.4-3.6-3.9c0-2.3,1.6-3.8,3.4-3.8
		c2.2,0,3.5,1.5,3.5,3.8v0.5h-5.4c0,1.3,1,2.2,2.2,2.2s1.8-0.6,2-1.5L570.5,139.5z M569,137.3c0-1-0.7-1.8-2-1.8
		c-1.2,0-1.9,0.9-2,1.8H569z M576.2,141.6h-1.4l-2.9-7.2h1.6l2.1,5.6l2.1-5.6h1.5L576.2,141.6L576.2,141.6z M587.3,139.5
		c-0.4,1.3-1.6,2.3-3.2,2.3c-1.9,0-3.6-1.4-3.6-3.9c0-2.3,1.6-3.8,3.5-3.8c2.2,0,3.5,1.5,3.5,3.8v0.5h-5.4c0,1.3,1,2.2,2.2,2.2
		s1.8-0.6,2-1.5L587.3,139.5z M585.8,137.3c0-1-0.7-1.8-2-1.8c-1.2,0-1.9,0.9-2,1.8H585.8z M589.8,141.6v-10.9h1.4v10.9H589.8z
		 M601.2,138c0,2.2-1.5,3.8-3.7,3.8s-3.7-1.6-3.7-3.8s1.5-3.8,3.7-3.8S601.2,135.8,601.2,138z M599.7,138c0-1.7-1-2.6-2.2-2.6
		s-2.2,0.9-2.2,2.6c0,1.7,1,2.6,2.2,2.6S599.7,139.7,599.7,138z M603.7,144.5v-10.1h1.4v1.1c0.4-0.7,1.2-1.3,2.4-1.3
		c2.2,0,3.3,1.7,3.3,3.8s-1.2,3.8-3.4,3.8c-1.1,0-2-0.5-2.3-1.2v3.8L603.7,144.5L603.7,144.5z M607.3,135.5c-1.3,0-2.1,1.1-2.1,2.5
		c0,1.5,0.9,2.6,2.1,2.6c1.3,0,2.1-1.1,2.1-2.6S608.6,135.5,607.3,135.5z M613.4,141.6v-7.2h1.3v1c0.5-0.8,1.4-1.2,2.2-1.2
		c0.9,0,1.8,0.4,2.2,1.4c0.6-1,1.5-1.4,2.4-1.4c1.3,0,2.5,0.9,2.5,2.7v4.7h-1.4v-4.5c0-0.9-0.5-1.7-1.5-1.7s-1.7,0.8-1.7,1.8v4.4
		H618v-4.5c0-0.9-0.5-1.7-1.5-1.7s-1.7,0.8-1.7,1.8v4.3L613.4,141.6L613.4,141.6z M633.3,139.5c-0.4,1.3-1.6,2.3-3.2,2.3
		c-1.9,0-3.6-1.4-3.6-3.9c0-2.3,1.6-3.8,3.5-3.8c2.2,0,3.5,1.5,3.5,3.8v0.5h-5.4c0,1.3,1,2.2,2.2,2.2s1.8-0.6,2-1.5L633.3,139.5z
		 M631.8,137.3c0-1-0.7-1.8-2-1.8c-1.2,0-1.9,0.9-2,1.8H631.8z M637.3,141.6h-1.4v-7.2h1.4v1c0.5-0.9,1.4-1.2,2.2-1.2
		c1.7,0,2.6,1.2,2.6,2.9v4.6h-1.4v-4.3c0-1-0.4-1.8-1.7-1.8c-1.1,0-1.7,0.9-1.7,2L637.3,141.6L637.3,141.6z M646.9,134.4h1.6v1.3
		h-1.6v3.8c0,0.7,0.3,1,1,1c0.2,0,0.4,0,0.6-0.1v1.2c-0.1,0-0.5,0.1-1,0.1c-1.2,0-2-0.8-2-2.1v-4h-1.4v-1.3h0.4
		c0.8,0,1.1-0.5,1.1-1.1V132h1.3L646.9,134.4L646.9,134.4z M657.5,134.4h1.6v1.3h-1.6v3.8c0,0.7,0.3,1,1,1c0.2,0,0.4,0,0.6-0.1v1.2
		c-0.1,0-0.5,0.1-1,0.1c-1.2,0-2-0.8-2-2.1v-4h-1.4v-1.3h0.4c0.8,0,1.1-0.5,1.1-1.1V132h1.3L657.5,134.4L657.5,134.4z M667.9,139.5
		c-0.4,1.3-1.6,2.3-3.2,2.3c-1.9,0-3.6-1.4-3.6-3.9c0-2.3,1.6-3.8,3.5-3.8c2.2,0,3.5,1.5,3.5,3.8v0.5h-5.4c0,1.3,1,2.2,2.2,2.2
		s1.8-0.6,2-1.5L667.9,139.5z M666.5,137.3c0-1-0.7-1.8-2-1.8c-1.2,0-1.9,0.9-2,1.8H666.5z M672.2,137.5l2-0.3
		c0.4-0.1,0.6-0.3,0.6-0.5c0-0.7-0.5-1.3-1.6-1.3c-1,0-1.5,0.6-1.6,1.5l-1.3-0.3c0.2-1.4,1.4-2.3,3-2.3c2.2,0,3,1.2,3,2.6v3.6
		c0,0.6,0.1,1,0.1,1.2H675c0-0.2-0.1-0.5-0.1-1c-0.3,0.5-1,1.2-2.3,1.2c-1.5,0-2.4-1-2.4-2.2C670,138.4,671,137.7,672.2,137.5z
		 M674.7,138.5v-0.3l-2.2,0.3c-0.6,0.1-1,0.4-1,1.1c0,0.5,0.5,1,1.2,1C673.8,140.6,674.7,140.1,674.7,138.5z M679.1,141.6v-7.2h1.4
		v1c0.5-0.8,1.3-1.2,2.2-1.2s1.8,0.4,2.2,1.4c0.6-1,1.5-1.4,2.4-1.4c1.3,0,2.5,0.9,2.5,2.7v4.7h-1.4v-4.5c0-0.9-0.5-1.7-1.5-1.7
		s-1.7,0.8-1.7,1.8v4.4h-1.4v-4.5c0-0.9-0.5-1.7-1.5-1.7s-1.7,0.8-1.7,1.8v4.3L679.1,141.6L679.1,141.6z M557.2,147.7l0.9,0.8
		c-1.5,1.7-2.5,3.8-2.5,6.4s1,4.7,2.5,6.4l-0.9,0.8c-1.6-1.6-2.9-3.9-2.9-7.2S555.6,149.3,557.2,147.7z M564,153.8h-0.6
		c-1.2,0-2,0.6-2,2.2v3.6H560v-7.2h1.4v1.3c0.5-1.1,1.4-1.4,2.2-1.4h0.5v1.5L564,153.8z M572.5,157.5c-0.4,1.3-1.6,2.3-3.2,2.3
		c-1.9,0-3.6-1.4-3.6-3.9c0-2.3,1.6-3.8,3.5-3.8c2.2,0,3.5,1.5,3.5,3.8v0.5H567c0,1.3,1,2.2,2.2,2.2s1.8-0.6,2-1.5L572.5,157.5z
		 M571,155.3c0-1-0.7-1.8-2-1.8c-1.2,0-1.9,0.9-2,1.8H571z M576.8,155.5l2-0.3c0.4-0.1,0.6-0.3,0.6-0.5c0-0.7-0.5-1.3-1.6-1.3
		c-1,0-1.5,0.6-1.6,1.5l-1.4-0.3c0.2-1.4,1.4-2.3,3-2.3c2.2,0,3,1.2,3,2.6v3.6c0,0.6,0.1,1,0.1,1.2h-1.4c0-0.2-0.1-0.5-0.1-1
		c-0.3,0.5-1,1.2-2.3,1.2c-1.5,0-2.4-1-2.4-2.2C574.6,156.4,575.6,155.7,576.8,155.5L576.8,155.5z M579.3,156.5v-0.3l-2.2,0.3
		c-0.6,0.1-1,0.4-1,1.1c0,0.5,0.5,1,1.2,1C578.4,158.6,579.3,158.1,579.3,156.5z M588.7,158.5c-0.3,0.7-1.1,1.3-2.2,1.3
		c-2.1,0-3.4-1.7-3.4-3.8c0-2,1.4-3.8,3.4-3.8c1.3,0,2,0.6,2.2,1.2v-4.7h1.4v9.5c0,0.7,0.1,1.2,0.1,1.3h-1.4
		C588.8,159.3,588.7,159,588.7,158.5z M586.6,158.6c1.3,0,2.1-1.1,2.1-2.6s-0.8-2.5-2.1-2.5s-2.1,1-2.1,2.5S585.3,158.6,586.6,158.6
		z M592.7,155.9v-1.2h4.1v1.2H592.7z M606.2,156c0,2.2-1.5,3.8-3.7,3.8s-3.7-1.6-3.7-3.8s1.5-3.8,3.7-3.8S606.2,153.8,606.2,156z
		 M604.7,156c0-1.7-1-2.6-2.2-2.6s-2.2,0.9-2.2,2.6c0,1.7,1,2.6,2.2,2.6S604.7,157.7,604.7,156z M610.1,159.6h-1.4v-7.2h1.4v1
		c0.5-0.9,1.4-1.2,2.2-1.2c1.7,0,2.6,1.2,2.6,2.9v4.6h-1.4v-4.3c0-1-0.4-1.8-1.7-1.8c-1.1,0-1.7,0.9-1.7,2L610.1,159.6L610.1,159.6z
		 M617.9,159.6v-10.9h1.4v10.9H617.9z M622.7,162.6l1.8-3.8l-3.1-6.4h1.6l2.2,5l2.2-5h1.5l-4.7,10.2H622.7z M637.3,155.5l2-0.3
		c0.4-0.1,0.6-0.3,0.6-0.5c0-0.7-0.5-1.3-1.6-1.3c-1,0-1.5,0.6-1.6,1.5l-1.3-0.3c0.1-1.4,1.4-2.3,3-2.3c2.2,0,3,1.2,3,2.6v3.6
		c0,0.6,0.1,1,0.1,1.2h-1.4c0-0.2-0.1-0.5-0.1-1c-0.3,0.5-1,1.2-2.3,1.2c-1.5,0-2.4-1-2.4-2.2C635.1,156.4,636,155.7,637.3,155.5z
		 M639.8,156.5v-0.3l-2.2,0.3c-0.6,0.1-1.1,0.4-1.1,1.1c0,0.5,0.5,1,1.2,1C638.9,158.6,639.8,158.1,639.8,156.5z M645,156
		c0,1.7,1,2.5,2.2,2.5c1.3,0,1.8-0.9,2-1.5l1.2,0.5c-0.3,1-1.4,2.2-3.3,2.2c-2.1,0-3.6-1.6-3.6-3.8s1.6-3.8,3.6-3.8
		c1.9,0,2.9,1.2,3.2,2.3l-1.3,0.5c-0.2-0.7-0.7-1.5-1.9-1.5C646,153.5,645,154.3,645,156L645,156z M653.6,156c0,1.7,1,2.5,2.2,2.5
		c1.3,0,1.8-0.9,2-1.5l1.2,0.5c-0.3,1-1.4,2.2-3.3,2.2c-2.1,0-3.6-1.6-3.6-3.8s1.6-3.8,3.6-3.8c1.9,0,2.9,1.2,3.2,2.3l-1.3,0.5
		c-0.2-0.7-0.7-1.5-1.9-1.5C654.7,153.5,653.6,154.3,653.6,156L653.6,156z M667.7,157.5c-0.4,1.3-1.6,2.3-3.2,2.3
		c-1.9,0-3.6-1.4-3.6-3.9c0-2.3,1.6-3.8,3.5-3.8c2.2,0,3.5,1.5,3.5,3.8v0.5h-5.4c0,1.3,1,2.2,2.2,2.2s1.8-0.6,2-1.5L667.7,157.5z
		 M666.3,155.3c0-1-0.7-1.8-2-1.8c-1.2,0-1.9,0.9-2,1.8H666.3z M670.9,157.3c0.1,0.8,0.7,1.3,1.7,1.3c0.8,0,1.2-0.5,1.2-1
		c0-0.4-0.3-0.8-0.9-0.9l-1.2-0.3c-1.1-0.2-1.8-1-1.8-2c0-1.2,1.2-2.3,2.6-2.3c2,0,2.6,1.3,2.7,1.9l-1.2,0.5
		c-0.1-0.4-0.4-1.2-1.5-1.2c-0.7,0-1.2,0.5-1.2,1c0,0.4,0.3,0.8,0.8,0.9l1.2,0.3c1.3,0.3,2,1.1,2,2.1s-0.9,2.2-2.6,2.2
		c-2,0-2.8-1.3-2.9-2.1L670.9,157.3L670.9,157.3z M678.4,157.3c0.1,0.8,0.7,1.3,1.7,1.3c0.8,0,1.2-0.5,1.2-1c0-0.4-0.3-0.8-0.9-0.9
		l-1.2-0.3c-1.1-0.2-1.8-1-1.8-2c0-1.2,1.2-2.3,2.6-2.3c2,0,2.6,1.3,2.7,1.9l-1.2,0.5c-0.1-0.4-0.4-1.2-1.5-1.2
		c-0.7,0-1.2,0.5-1.2,1c0,0.4,0.3,0.8,0.8,0.9l1.2,0.3c1.3,0.3,2,1.1,2,2.1s-0.9,2.2-2.6,2.2c-2,0-2.8-1.3-2.9-2.1L678.4,157.3
		L678.4,157.3z M685,162l-0.9-0.8c1.5-1.7,2.5-3.8,2.5-6.4s-1-4.7-2.5-6.4l0.9-0.8c1.6,1.6,2.9,3.9,2.9,7.2S686.6,160.4,685,162z
		 M590.8,362.3c2,0,3.2,1.2,3.2,2.9c0,1.1-0.7,2-1.6,2.3c1.2,0.3,1.9,1.4,1.9,2.6c0,1.7-1.3,2.9-3.3,2.9h-3.7v-10.7H590.8
		L590.8,362.3z M590.6,366.9c1.2,0,1.9-0.7,1.9-1.7s-0.7-1.7-1.9-1.7h-1.8v3.4L590.6,366.9L590.6,366.9z M590.8,371.6
		c1.2,0,2-0.7,2-1.7s-0.6-1.7-1.9-1.7h-2.1v3.4L590.8,371.6L590.8,371.6z M597.6,362c0.6,0,1,0.5,1,1c0,0.6-0.5,1-1,1
		c-0.6,0-1-0.5-1-1C596.6,362.4,597.1,362,597.6,362z M597,372.9v-7.2h1.4v7.2H597z M603.4,365.7h1.6v1.3h-1.6v3.8c0,0.7,0.3,1,1,1
		c0.2,0,0.4,0,0.6-0.1v1.2c-0.1,0-0.5,0.1-1,0.1c-1.2,0-2-0.8-2-2.1v-4h-1.4v-1.3h0.4c0.8,0,1.1-0.5,1.1-1.1v-1.2h1.3L603.4,365.7
		L603.4,365.7z M619.7,373.1c-1.7,0-2.7-1.3-2.7-2.9v-4.5h1.4v4.3c0,1,0.5,1.9,1.6,1.9s1.7-0.8,1.7-1.8v-4.3h1.4v5.9
		c0,0.6,0,1.1,0.1,1.3h-1.3c0-0.2-0.1-0.6-0.1-0.9C621.4,372.8,620.5,373.1,619.7,373.1L619.7,373.1z M627.1,369.3
		c0,1.7,1,2.5,2.2,2.5c1.3,0,1.8-0.9,2-1.5l1.2,0.5c-0.3,1-1.4,2.2-3.3,2.2c-2.1,0-3.6-1.6-3.6-3.8c0-2.2,1.6-3.8,3.6-3.8
		c1.9,0,2.9,1.2,3.2,2.3l-1.3,0.5c-0.2-0.7-0.7-1.5-1.9-1.5C628.1,366.8,627.1,367.6,627.1,369.3L627.1,369.3z M638.3,368.8l3.1,4.2
		h-1.8l-2.4-3.2l-1,1v2.2h-1.4v-10.9h1.4v6.8l3.1-3.2h2L638.3,368.8L638.3,368.8z M649.5,370.9c-0.4,1.3-1.6,2.3-3.2,2.3
		c-1.9,0-3.6-1.4-3.6-3.9c0-2.3,1.6-3.8,3.5-3.8c2.2,0,3.5,1.5,3.5,3.8v0.5H644c0,1.3,1,2.2,2.2,2.2s1.8-0.6,2-1.5L649.5,370.9z
		 M648,368.6c0-1-0.7-1.8-2-1.8c-1.2,0-1.9,0.9-2,1.8H648z M653.9,365.7h1.6v1.3h-1.6v3.8c0,0.7,0.3,1,1,1c0.2,0,0.4,0,0.6-0.1v1.2
		c-0.1,0-0.5,0.1-1,0.1c-1.2,0-2-0.8-2-2.1v-4h-1.4v-1.3h0.4c0.8,0,1.1-0.5,1.1-1.1v-1.2h1.3L653.9,365.7L653.9,365.7z M611.4,365.7
		c-1.2,0-2.1,0.6-2.4,1.2v-4.6h-1.4v10.6v0.1h1.4v-1c0.4,0.7,1.2,1.2,2.3,1.2c2.2,0,3.3-1.7,3.3-3.7
		C614.7,367.4,613.6,365.7,611.4,365.7z M611.2,371.9c-1.2,0-2.1-1-2.1-2.6c0-1.5,0.9-2.5,2.1-2.5c1.3,0,2.1,0.9,2.1,2.5
		C613.3,370.9,612.5,371.9,611.2,371.9z"/>
	<path id="repo1_301_" class="st1" d="M589.3,315.4c0-6.3,14.2-11.3,31.8-11.3s31.8,5.1,31.8,11.3 M589.3,315.4v14.1
		c0,1.5,0.9,3,2.4,4.3c4.8,4.1,16.2,7,29.5,7s24.7-2.9,29.5-7c1.5-1.3,2.4-2.8,2.4-4.3v-14.1"/>
	<path class="st3" d="M652.9,315.4c0,6.3-14.2,11.3-31.8,11.3s-31.8-5.1-31.8-11.3c0-6.3,14.2-11.3,31.8-11.3
		S652.9,309.1,652.9,315.4z"/>
	<path id="repo1_300_" class="st1" d="M589.3,301.3c0-6.3,14.2-11.3,31.8-11.3s31.8,5.1,31.8,11.3 M589.3,301.3v14.1
		c0,1.5,0.9,3,2.4,4.3c4.8,4.1,16.2,7,29.5,7s24.7-2.9,29.5-7c1.5-1.3,2.4-2.8,2.4-4.3v-14.1"/>
	<path class="st3" d="M652.9,301.3c0,6.3-14.2,11.3-31.8,11.3s-31.8-5.1-31.8-11.3c0-6.3,14.2-11.3,31.8-11.3S652.9,295,652.9,301.3
		z"/>
	<path id="repo1_299_" class="st1" d="M589.3,287.2c0-6.3,14.2-11.3,31.8-11.3s31.8,5.1,31.8,11.3 M589.3,287.2v14.1
		c0,1.5,0.9,3,2.4,4.3c4.8,4.1,16.2,7,29.5,7s24.7-2.9,29.5-7c1.5-1.3,2.4-2.8,2.4-4.3v-14.1"/>
	<path class="st4" d="M652.9,287.2c0,6.3-14.2,11.3-31.8,11.3s-31.8-5.1-31.8-11.3c0-6.3,14.2-11.3,31.8-11.3
		S652.9,280.9,652.9,287.2z"/>
	<path class="st6" d="M621.1,240.6v-43.5 M610.2,204.5l10.9-10.9l10.9,10.9 M630.9,58.7c3.1,6.8,9.9,11.2,17.3,11.2
		c7.5,0,14.3-4.4,17.4-11.3"/>
	<path class="st1" d="M647.8,102.9c0,0,27.4,0.8,37.7-5.2c17-9.9-0.3-30.2-13.7-33.6c-4.1,7.7-13.3,13-24,13h0.3
		c-10.7,0-19.8-5.4-24-13c-13.4,3.4-30.7,23.8-13.7,33.6c10.3,6,37.7,5.2,37.7,5.2"/>
	<circle class="st1" cx="648.2" cy="33.2" r="23"/>
	<path class="st4" d="M658.9,21.1c2.6,20,7.9,2.4,11.8,17c-2.2,10.4-11.4,18.2-22.5,18.2c-12.7,0-23-10.3-23-23
		c0-1.3,0.1-2.6,0.3-3.9C626.6,29.4,651.8,40.4,658.9,21.1z"/>
	<path class="st6" d="M660.8,53.5v10.6 M636.2,64.1V53.8 M557.4,65.6c3.1,6.8,9.9,11.2,17.3,11.2c7.5,0,14.3-4.4,17.4-11.3"/>
	<path class="st1" d="M574.3,109.9c0,0,27.4,0.8,37.7-5.2c17-9.9-0.3-30.2-13.7-33.6c-4.1,7.7-13.3,13-24,13h0.3
		c-10.7,0-19.8-5.4-24-13c-13.4,3.4-30.7,23.8-13.7,33.6c10.3,6,37.7,5.2,37.7,5.2"/>
	<circle class="st1" cx="574.7" cy="40.2" r="23"/>
	<path class="st4" d="M559.2,23.2c2.6,20,34.1,7.2,38,21.8c-2.2,10.4-11.4,18.2-22.5,18.2c-12.7,0-23-10.3-23-23
		c0-1.3,0.1-2.6,0.3-3.9C553.1,36.3,560.1,40.2,559.2,23.2z"/>
	<path class="st6" d="M587.3,60.4V71 M562.7,71.1V60.8 M417.4,514.4c54.4-11.3,101.7-42.1,134.3-84.7 M537.7,430.8l15.1-2.4
		l2.4,15.1"/>
</g>
</svg>
