<?xml version="1.0" encoding="utf-8"?>
<!-- Generator: Adobe Illustrator 21.0.2, SVG Export Plug-In . SVG Version: 6.00 Build 0)  -->
<svg version="1.1" id="Layer_1" xmlns="http://www.w3.org/2000/svg" xmlns:xlink="http://www.w3.org/1999/xlink" x="0px" y="0px"
	 viewBox="0 0 800 632" style="enable-background:new 0 0 800 632;" xml:space="preserve">
<style type="text/css">
	.st0{fill:#FFFFFF;stroke:#404040;stroke-width:4;stroke-linecap:round;stroke-linejoin:round;stroke-miterlimit:10;}
	.st1{fill:#B3E3FF;stroke:#404040;stroke-width:4;stroke-miterlimit:10;}
	.st2{fill:#404040;}
	.st3{fill:#FFFFFF;stroke:#59AFE1;stroke-width:4;stroke-miterlimit:10;}
	.st4{fill:#FFFFFF;stroke:#404040;stroke-width:4;stroke-miterlimit:10;}
	.st5{fill:none;stroke:#404040;stroke-width:4;stroke-linecap:round;stroke-linejoin:round;stroke-miterlimit:10;}
</style>
<g id="migrating_x5F_overview_x5F_5">
	<path class="st0" d="M356.1,529.9c3.1,6.8,9.9,11.2,17.3,11.2c7.5,0,14.3-4.4,17.4-11.3"/>
	<path class="st1" d="M373.5,574.2c0,0,27.4,0.8,37.7-5.2c17-9.9-0.3-30.2-13.7-33.6c-4.1,7.7-13.3,13-24,13h0.3
		c-10.7,0-19.8-5.4-24-13c-13.4,3.4-30.7,23.8-13.7,33.6c10.3,6,37.7,5.2,37.7,5.2"/>
	<circle class="st1" cx="373.4" cy="504.5" r="23"/>
	<path class="st0" d="M383.5,483.8c-6.7,17.2-19.4,0.5-32.6,25.5c2.2,10.4,11.4,18.2,22.5,18.2c12.7,0,23-10.3,23-23
		C396.4,503.2,385.3,498.6,383.5,483.8z M385.9,523.8v11.5 M361.3,535.4v-11.3"/>
	<path class="st1" d="M350.4,505c0,0,0,10.6,4.6,14.5c-3.6,1.7-11.6-0.9-10.5-1.7C349,514.6,350.4,505,350.4,505z M396.4,504.5
		c0,0-0.2,11.1-4.8,15c3.6,1.7,11.6-0.9,10.5-1.7C397.6,514.6,396.4,504.5,396.4,504.5z"/>
	<path class="st2" d="M349,604.1v-8.3l-3.6,8.3H344l-3.6-8.3v8.3h-1.5v-10.6h2l3.7,8.7l3.8-8.7h2v10.6H349z M354.4,593.2
		c0.6,0,1,0.5,1,1c0,0.6-0.5,1-1,1c-0.6,0-1-0.5-1-1C353.4,593.6,353.8,593.2,354.4,593.2z M353.7,604.1v-7.2h1.4v7.2H353.7z
		 M359.1,604.2c0.1,1,0.9,1.8,2,1.8c1.5,0,2.2-0.8,2.2-2.3v-1c-0.3,0.7-1.1,1.2-2.2,1.2c-1.9,0-3.3-1.5-3.3-3.5
		c0-1.9,1.3-3.5,3.3-3.5c1.1,0,1.9,0.4,2.2,1.1v-1h1.4v6.7c0,1.8-0.9,3.6-3.6,3.6c-1.8,0-3.1-1.1-3.3-2.7L359.1,604.2L359.1,604.2z
		 M363.3,600.3c0-1.4-0.8-2.3-2.1-2.3c-1.2,0-2.1,0.9-2.1,2.3s0.8,2.3,2.1,2.3S363.3,601.7,363.3,600.3z M371.7,598.3h-0.6
		c-1.2,0-2,0.6-2,2.2v3.6h-1.4v-7.2h1.4v1.3c0.5-1.1,1.4-1.4,2.2-1.4h0.5v1.5L371.7,598.3z M375.7,600l2-0.3
		c0.4-0.1,0.6-0.3,0.6-0.5c0-0.7-0.5-1.3-1.6-1.3c-1,0-1.5,0.6-1.6,1.5l-1.4-0.3c0.2-1.4,1.4-2.3,3-2.3c2.2,0,3,1.2,3,2.6v3.6
		c0,0.6,0.1,1,0.1,1.2h-1.4c0-0.2-0.1-0.5-0.1-1c-0.3,0.5-1,1.2-2.3,1.2c-1.5,0-2.4-1-2.4-2.2C373.5,600.9,374.4,600.2,375.7,600
		L375.7,600z M378.2,601v-0.3L376,601c-0.6,0.1-1,0.4-1,1.1c0,0.5,0.5,1,1.2,1C377.2,603.2,378.2,602.6,378.2,601z M384.4,596.9h1.6
		v1.3h-1.6v3.8c0,0.7,0.3,1,1,1c0.2,0,0.4,0,0.6-0.1v1.2c-0.1,0-0.5,0.1-1,0.1c-1.2,0-2-0.8-2-2.1v-4h-1.4v-1.3h0.4
		c0.8,0,1.1-0.5,1.1-1.1v-1.2h1.3V596.9L384.4,596.9z M389.3,593.2c0.6,0,1,0.5,1,1c0,0.6-0.4,1-1,1s-1-0.5-1-1
		C388.3,593.6,388.7,593.2,389.3,593.2z M388.6,604.1v-7.2h1.4v7.2H388.6z M399.9,600.5c0,2.2-1.5,3.8-3.7,3.8s-3.7-1.6-3.7-3.8
		s1.5-3.8,3.7-3.8S399.9,598.3,399.9,600.5z M398.5,600.5c0-1.7-1.1-2.6-2.2-2.6c-1.2,0-2.2,0.9-2.2,2.6c0,1.7,1,2.6,2.2,2.6
		C397.4,603.1,398.5,602.2,398.5,600.5z M403.9,604.1h-1.4v-7.2h1.4v1c0.5-0.9,1.4-1.2,2.2-1.2c1.7,0,2.6,1.2,2.6,2.9v4.6h-1.4v-4.3
		c0-1-0.4-1.8-1.7-1.8c-1.1,0-1.7,0.9-1.7,2V604.1z M359.4,622.1v-10.9h1.4v10.9H359.4z M370.3,620.1c-0.4,1.3-1.6,2.3-3.2,2.3
		c-1.9,0-3.6-1.4-3.6-3.9c0-2.3,1.6-3.8,3.4-3.8c2.2,0,3.5,1.5,3.5,3.8v0.5H365c0,1.3,1,2.2,2.2,2.2s1.8-0.6,2-1.5L370.3,620.1z
		 M368.8,617.8c0-1-0.7-1.8-2-1.8c-1.2,0-1.9,0.9-2,1.8H368.8z M374.6,618l1.9-0.3c0.4-0.1,0.6-0.3,0.6-0.5c0-0.7-0.5-1.3-1.6-1.3
		c-1,0-1.5,0.6-1.6,1.5l-1.4-0.3c0.2-1.4,1.4-2.3,3-2.3c2.2,0,3,1.2,3,2.6v3.6c0,0.6,0.1,1,0.1,1.2h-1.4c0-0.2-0.1-0.5-0.1-1
		c-0.3,0.5-1,1.2-2.3,1.2c-1.5,0-2.4-1-2.4-2.2C372.4,618.9,373.3,618.2,374.6,618L374.6,618z M377.1,619v-0.3l-2.2,0.3
		c-0.6,0.1-1,0.4-1,1.1c0,0.5,0.4,1,1.2,1C376.2,621.2,377.1,620.6,377.1,619z M386.5,621c-0.3,0.7-1.1,1.3-2.2,1.3
		c-2.1,0-3.4-1.7-3.4-3.8c0-2,1.4-3.8,3.4-3.8c1.3,0,2,0.6,2.2,1.2v-4.7h1.4v9.5c0,0.7,0.1,1.2,0.1,1.3h-1.4
		C386.6,621.8,386.5,621.5,386.5,621z M384.4,621.1c1.3,0,2.1-1.1,2.1-2.6s-0.8-2.5-2.1-2.5s-2.1,1-2.1,2.5S383.1,621.1,384.4,621.1
		z M542.8,604.1v-10.6h1.5v9.3h5v1.4h-6.5V604.1z M558.3,600.5c0,2.2-1.5,3.8-3.7,3.8s-3.7-1.6-3.7-3.8s1.5-3.8,3.7-3.8
		S558.3,598.3,558.3,600.5z M556.9,600.5c0-1.7-1-2.6-2.2-2.6s-2.2,0.9-2.2,2.6c0,1.7,1,2.6,2.2,2.6S556.9,602.2,556.9,600.5z
		 M561.7,600.5c0,1.7,1,2.5,2.2,2.5c1.4,0,1.8-0.9,2-1.5l1.2,0.5c-0.3,1-1.4,2.2-3.3,2.2c-2.1,0-3.6-1.6-3.6-3.8s1.6-3.8,3.6-3.8
		c1.9,0,2.9,1.2,3.2,2.3l-1.3,0.5c-0.2-0.7-0.7-1.5-1.9-1.5C562.8,598,561.7,598.8,561.7,600.5L561.7,600.5z M571.2,600l2-0.3
		c0.4-0.1,0.6-0.3,0.6-0.5c0-0.7-0.5-1.3-1.6-1.3c-1,0-1.5,0.6-1.6,1.5l-1.3-0.3c0.1-1.4,1.4-2.3,3-2.3c2.2,0,3,1.2,3,2.6v3.6
		c0,0.6,0.1,1,0.1,1.2H574c0-0.2-0.1-0.5-0.1-1c-0.3,0.5-1,1.2-2.3,1.2c-1.5,0-2.4-1-2.4-2.2C569,600.9,570,600.2,571.2,600z
		 M573.7,601v-0.3l-2.2,0.3c-0.6,0.1-1.1,0.4-1.1,1.1c0,0.5,0.5,1,1.2,1C572.8,603.2,573.7,602.6,573.7,601z M578.1,604.1v-10.9h1.4
		v10.9H578.1z M540.1,622.1l-0.1-1.5c-0.5,0.8-1.6,1.7-3.4,1.7c-2.7,0-5.2-1.9-5.2-5.5s2.6-5.5,5.3-5.5c2.3,0,4.1,1.3,4.7,3.2
		l-1.3,0.6c-0.5-1.5-1.7-2.4-3.4-2.4c-1.9,0-3.8,1.4-3.8,4.2s1.8,4.2,3.7,4.2c2.4,0,3.2-1.7,3.3-2.8h-3.7V617h5.1v5.2h-1.2
		L540.1,622.1z M544.9,611.2c0.6,0,1,0.5,1,1c0,0.6-0.5,1-1,1c-0.6,0-1-0.5-1-1C543.9,611.6,544.3,611.2,544.9,611.2z M544.2,622.1
		v-7.2h1.4v7.2H544.2z M550.6,614.9h1.6v1.3h-1.6v3.8c0,0.7,0.3,1,1,1c0.2,0,0.4,0,0.6-0.1v1.2c-0.1,0-0.5,0.1-1,0.1
		c-1.2,0-2-0.8-2-2.1v-4h-1.4v-1.3h0.4c0.8,0,1.1-0.5,1.1-1.1v-1.2h1.3L550.6,614.9L550.6,614.9z M563.3,616.3h-0.6
		c-1.2,0-2,0.6-2,2.2v3.6h-1.4v-7.2h1.4v1.3c0.5-1.1,1.4-1.4,2.2-1.4h0.5v1.5L563.3,616.3z M571.8,620.1c-0.4,1.3-1.6,2.3-3.2,2.3
		c-1.9,0-3.6-1.4-3.6-3.9c0-2.3,1.6-3.8,3.5-3.8c2.2,0,3.5,1.5,3.5,3.8v0.5h-5.4c0,1.3,1,2.2,2.2,2.2s1.8-0.6,2-1.5L571.8,620.1z
		 M570.3,617.8c0-1-0.7-1.8-2-1.8c-1.2,0-1.9,0.9-2,1.8H570.3z M574.4,625v-10.1h1.4v1.1c0.4-0.7,1.2-1.3,2.4-1.3
		c2.2,0,3.3,1.7,3.3,3.8s-1.2,3.8-3.4,3.8c-1.1,0-2-0.5-2.3-1.2v3.8h-1.4V625z M577.9,616c-1.3,0-2.1,1.1-2.1,2.5
		c0,1.5,0.9,2.6,2.1,2.6c1.3,0,2.1-1.1,2.1-2.6C580,617.1,579.2,616,577.9,616z M590.8,618.5c0,2.2-1.5,3.8-3.7,3.8
		s-3.7-1.6-3.7-3.8s1.5-3.8,3.7-3.8S590.8,616.3,590.8,618.5z M589.3,618.5c0-1.7-1-2.6-2.2-2.6s-2.2,0.9-2.2,2.6
		c0,1.7,1,2.6,2.2,2.6S589.3,620.2,589.3,618.5z"/>
	<path id="repo1_310_" class="st1" d="M529.2,546.5c0-6.3,14.2-11.3,31.8-11.3s31.8,5.1,31.8,11.3 M529.2,546.5v14.1
		c0,1.5,0.9,3,2.4,4.3c4.8,4.1,16.2,7,29.5,7s24.7-2.9,29.5-7c1.5-1.3,2.4-2.8,2.4-4.3v-14.1"/>
	<path class="st3" d="M592.9,546.5c0,6.3-14.2,11.3-31.8,11.3s-31.8-5.1-31.8-11.3c0-6.3,14.2-11.3,31.8-11.3
		S592.9,540.3,592.9,546.5z"/>
	<path id="repo1_309_" class="st1" d="M529.2,532.4c0-6.3,14.2-11.3,31.8-11.3s31.8,5.1,31.8,11.3 M529.2,532.4v14.1
		c0,1.5,0.9,3,2.4,4.3c4.8,4.1,16.2,7,29.5,7s24.7-2.9,29.5-7c1.5-1.3,2.4-2.8,2.4-4.3v-14.1"/>
	<path class="st3" d="M592.9,532.4c0,6.3-14.2,11.3-31.8,11.3s-31.8-5.1-31.8-11.3c0-6.3,14.2-11.3,31.8-11.3
		S592.9,526.2,592.9,532.4z"/>
	<path id="repo1_308_" class="st1" d="M529.2,518.3c0-6.3,14.2-11.3,31.8-11.3s31.8,5.1,31.8,11.3 M529.2,518.3v14.1
		c0,1.5,0.9,3,2.4,4.3c4.8,4.1,16.2,7,29.5,7s24.7-2.9,29.5-7c1.5-1.3,2.4-2.8,2.4-4.3v-14.1"/>
	<path class="st4" d="M592.9,518.3c0,6.3-14.2,11.3-31.8,11.3s-31.8-5.1-31.8-11.3c0-6.3,14.2-11.3,31.8-11.3
		S592.9,512.1,592.9,518.3z"/>
	<path class="st5" d="M493.3,540.5h-43.5 M484.6,529.7l10.8,10.8l-10.8,10.9 M561.1,241.8v-43.5 M571.9,233.1l-10.8,10.8l-10.9-10.8
		 M550.2,205.7l10.9-10.9l10.8,10.9 M561.1,471.7v-43.5 M571.9,463l-10.8,10.9L550.2,463 M550.2,435.7l10.9-10.9l10.8,10.9"/>
	<path class="st2" d="M530.8,363.5c2,0,3.2,1.2,3.2,2.9c0,1.1-0.7,2-1.6,2.3c1.2,0.3,1.9,1.4,1.9,2.6c0,1.7-1.3,2.9-3.3,2.9h-3.7
		v-10.7H530.8L530.8,363.5z M530.6,368.1c1.2,0,1.9-0.7,1.9-1.7s-0.7-1.7-1.9-1.7h-1.8v3.4L530.6,368.1L530.6,368.1z M530.8,372.8
		c1.2,0,2-0.7,2-1.7s-0.6-1.7-1.9-1.7h-2.1v3.4L530.8,372.8L530.8,372.8z M537.6,363.2c0.6,0,1,0.5,1,1c0,0.6-0.5,1-1,1
		c-0.6,0-1-0.5-1-1C536.6,363.6,537.1,363.2,537.6,363.2z M537,374.1v-7.2h1.4v7.2H537z M543.4,366.9h1.6v1.3h-1.6v3.8
		c0,0.7,0.3,1,1,1c0.2,0,0.4,0,0.6-0.1v1.2c-0.1,0-0.5,0.1-1,0.1c-1.2,0-2-0.8-2-2.1v-4h-1.4v-1.3h0.4c0.8,0,1.1-0.5,1.1-1.1v-1.2
		h1.3L543.4,366.9L543.4,366.9z M559.7,374.3c-1.7,0-2.7-1.3-2.7-2.9v-4.5h1.4v4.3c0,1,0.5,1.9,1.6,1.9s1.7-0.8,1.7-1.8V367h1.4v5.9
		c0,0.6,0,1.1,0.1,1.3h-1.3c0-0.2-0.1-0.6-0.1-0.9C561.4,374,560.5,374.3,559.7,374.3L559.7,374.3z M567.1,370.5
		c0,1.7,1,2.5,2.2,2.5c1.3,0,1.8-0.9,2-1.5l1.2,0.5c-0.3,1-1.4,2.2-3.3,2.2c-2.1,0-3.6-1.6-3.6-3.8c0-2.2,1.6-3.8,3.6-3.8
		c1.9,0,2.9,1.2,3.2,2.3l-1.3,0.5c-0.2-0.7-0.7-1.5-1.9-1.5C568.1,368,567.1,368.8,567.1,370.5L567.1,370.5z M578.3,370l3.1,4.2
		h-1.8l-2.4-3.2l-1,1v2.2h-1.4v-10.9h1.4v6.8l3.1-3.2h2L578.3,370L578.3,370z M589.5,372.1c-0.4,1.3-1.6,2.3-3.2,2.3
		c-1.9,0-3.6-1.4-3.6-3.9c0-2.3,1.6-3.8,3.5-3.8c2.2,0,3.5,1.5,3.5,3.8v0.5H584c0,1.3,1,2.2,2.2,2.2s1.8-0.6,2-1.5L589.5,372.1z
		 M588,369.8c0-1-0.7-1.8-2-1.8c-1.2,0-1.9,0.9-2,1.8H588z M593.9,366.9h1.6v1.3h-1.6v3.8c0,0.7,0.3,1,1,1c0.2,0,0.4,0,0.6-0.1v1.2
		c-0.1,0-0.5,0.1-1,0.1c-1.2,0-2-0.8-2-2.1v-4h-1.4v-1.3h0.4c0.8,0,1.1-0.5,1.1-1.1v-1.2h1.3L593.9,366.9L593.9,366.9z M540.1,392.1
		l-0.1-1.5c-0.5,0.8-1.6,1.7-3.4,1.7c-2.7,0-5.2-1.9-5.2-5.5s2.6-5.5,5.3-5.5c2.3,0,4.1,1.3,4.7,3.2l-1.3,0.6
		c-0.5-1.5-1.7-2.4-3.4-2.4c-1.9,0-3.8,1.4-3.8,4.2c0,2.8,1.8,4.2,3.7,4.2c2.4,0,3.2-1.7,3.3-2.8h-3.7V387h5.1v5.2h-1.2L540.1,392.1
		z M544.9,381.2c0.6,0,1,0.5,1,1c0,0.6-0.5,1-1,1c-0.6,0-1-0.5-1-1C543.9,381.6,544.3,381.2,544.9,381.2z M544.2,392.1v-7.2h1.4v7.2
		H544.2z M550.6,384.9h1.6v1.3h-1.6v3.8c0,0.7,0.3,1,1,1c0.2,0,0.4,0,0.6-0.1v1.2c-0.1,0-0.5,0.1-1,0.1c-1.2,0-2-0.8-2-2.1v-4h-1.4
		v-1.3h0.4c0.8,0,1.1-0.5,1.1-1.1v-1.2h1.3L550.6,384.9L550.6,384.9z M563.3,386.3h-0.6c-1.2,0-2,0.6-2,2.2v3.6h-1.4v-7.2h1.4v1.3
		c0.5-1.1,1.4-1.4,2.2-1.4h0.5v1.5H563.3z M571.8,390.1c-0.4,1.3-1.6,2.3-3.2,2.3c-1.9,0-3.6-1.4-3.6-3.9c0-2.3,1.6-3.8,3.5-3.8
		c2.2,0,3.5,1.5,3.5,3.8v0.5h-5.4c0,1.3,1,2.2,2.2,2.2s1.8-0.6,2-1.5L571.8,390.1z M570.3,387.8c0-1-0.7-1.8-2-1.8
		c-1.2,0-1.9,0.9-2,1.8H570.3z M574.4,395v-10.1h1.4v1.1c0.4-0.7,1.2-1.3,2.4-1.3c2.2,0,3.3,1.7,3.3,3.8c0,2.1-1.2,3.8-3.4,3.8
		c-1.1,0-2-0.5-2.3-1.2v3.8h-1.4V395z M577.9,386c-1.3,0-2.1,1.1-2.1,2.5c0,1.5,0.9,2.6,2.1,2.6c1.3,0,2.1-1.1,2.1-2.6
		C580,387.1,579.2,386,577.9,386z M590.8,388.5c0,2.2-1.5,3.8-3.7,3.8s-3.7-1.6-3.7-3.8c0-2.2,1.5-3.8,3.7-3.8
		S590.8,386.3,590.8,388.5z M589.3,388.5c0-1.7-1-2.6-2.2-2.6s-2.2,0.9-2.2,2.6s1,2.6,2.2,2.6S589.3,390.2,589.3,388.5z
		 M491.8,142.8v-10.6h3.7c2.7,0,5.1,1.8,5.1,5.3s-2.4,5.3-5.1,5.3H491.8z M495.4,141.5c2,0,3.6-1.3,3.6-4s-1.6-4-3.6-4h-2.2v8H495.4
		z M509.5,140.7c-0.4,1.3-1.6,2.3-3.2,2.3c-1.9,0-3.6-1.4-3.6-3.9c0-2.3,1.6-3.8,3.5-3.8c2.2,0,3.5,1.5,3.5,3.8v0.4H504
		c0,1.3,1,2.2,2.2,2.2s1.8-0.6,2-1.5L509.5,140.7L509.5,140.7z M508,138.4c0-1-0.7-1.8-2-1.8c-1.2,0-1.9,0.9-2,1.8H508z
		 M515.2,142.8h-1.4l-2.9-7.2h1.6l2.1,5.6l2.1-5.6h1.5L515.2,142.8L515.2,142.8z M526.2,140.7c-0.4,1.3-1.6,2.3-3.2,2.3
		c-1.9,0-3.6-1.4-3.6-3.9c0-2.3,1.6-3.8,3.5-3.8c2.2,0,3.5,1.5,3.5,3.8v0.4H521c0,1.3,1,2.2,2.2,2.2s1.8-0.6,2-1.5L526.2,140.7z
		 M524.8,138.4c0-1-0.7-1.8-2-1.8c-1.2,0-1.9,0.9-2,1.8H524.8z M528.8,142.8v-10.9h1.4v10.9H528.8z M540.2,139.2
		c0,2.2-1.5,3.8-3.7,3.8s-3.7-1.6-3.7-3.8s1.5-3.8,3.7-3.8S540.2,137,540.2,139.2z M538.7,139.2c0-1.7-1.1-2.6-2.2-2.6
		c-1.2,0-2.2,0.9-2.2,2.6c0,1.7,1,2.6,2.2,2.6S538.7,140.9,538.7,139.2z M542.7,145.6v-10.1h1.4v1.1c0.4-0.7,1.2-1.3,2.4-1.3
		c2.2,0,3.3,1.7,3.3,3.8s-1.2,3.8-3.4,3.8c-1.1,0-2-0.5-2.3-1.2v3.8L542.7,145.6L542.7,145.6z M546.3,136.7c-1.3,0-2.1,1.1-2.1,2.5
		c0,1.5,0.9,2.5,2.1,2.5c1.3,0,2.1-1.1,2.1-2.5C548.4,137.7,547.6,136.7,546.3,136.7z M552.4,142.8v-7.2h1.3v1
		c0.5-0.8,1.3-1.2,2.2-1.2s1.8,0.4,2.2,1.4c0.6-1,1.5-1.4,2.4-1.4c1.3,0,2.5,0.9,2.5,2.7v4.7h-1.4v-4.5c0-0.9-0.5-1.6-1.5-1.6
		s-1.7,0.8-1.7,1.8v4.4H557v-4.5c0-0.9-0.5-1.6-1.5-1.6s-1.7,0.8-1.7,1.8v4.3L552.4,142.8L552.4,142.8z M572.3,140.7
		c-0.4,1.3-1.6,2.3-3.2,2.3c-1.9,0-3.6-1.4-3.6-3.9c0-2.3,1.6-3.8,3.5-3.8c2.2,0,3.5,1.5,3.5,3.8v0.4h-5.4c0,1.3,1,2.2,2.2,2.2
		s1.8-0.6,2-1.5L572.3,140.7z M570.8,138.4c0-1-0.7-1.8-2-1.8c-1.2,0-1.9,0.9-2,1.8H570.8z M576.3,142.8h-1.4v-7.2h1.4v1
		c0.5-0.9,1.4-1.2,2.2-1.2c1.7,0,2.6,1.2,2.6,2.8v4.6h-1.4v-4.3c0-1-0.4-1.8-1.7-1.8c-1.1,0-1.7,0.9-1.7,2L576.3,142.8L576.3,142.8z
		 M585.9,135.6h1.6v1.3h-1.6v3.8c0,0.7,0.3,1,1,1c0.2,0,0.4,0,0.6-0.1v1.2c-0.1,0-0.5,0.1-1,0.1c-1.2,0-2-0.8-2-2.1v-4h-1.4v-1.3
		h0.4c0.8,0,1.1-0.5,1.1-1.1v-1.2h1.3L585.9,135.6L585.9,135.6z M596.5,135.6h1.6v1.3h-1.6v3.8c0,0.7,0.3,1,1,1c0.2,0,0.4,0,0.6-0.1
		v1.2c-0.1,0-0.5,0.1-1,0.1c-1.2,0-2-0.8-2-2.1v-4h-1.4v-1.3h0.4c0.8,0,1.1-0.5,1.1-1.1v-1.2h1.3L596.5,135.6L596.5,135.6z
		 M606.9,140.7c-0.4,1.3-1.6,2.3-3.2,2.3c-1.9,0-3.6-1.4-3.6-3.9c0-2.3,1.6-3.8,3.5-3.8c2.2,0,3.5,1.5,3.5,3.8v0.4h-5.4
		c0,1.3,1,2.2,2.2,2.2s1.8-0.6,2-1.5L606.9,140.7z M605.5,138.4c0-1-0.7-1.8-2-1.8c-1.2,0-1.9,0.9-2,1.8H605.5z M611.2,138.7l2-0.3
		c0.4-0.1,0.6-0.3,0.6-0.5c0-0.7-0.5-1.3-1.6-1.3c-1,0-1.5,0.6-1.6,1.5l-1.4-0.3c0.2-1.4,1.4-2.3,3-2.3c2.2,0,3,1.2,3,2.6v3.6
		c0,0.6,0.1,1,0.1,1.2h-1.4c0-0.2-0.1-0.5-0.1-1c-0.3,0.5-1,1.2-2.3,1.2c-1.5,0-2.4-1-2.4-2.2C609,139.6,610,138.8,611.2,138.7
		L611.2,138.7z M613.7,139.7v-0.3l-2.2,0.3c-0.6,0.1-1,0.4-1,1.1c0,0.5,0.5,1,1.2,1C612.8,141.8,613.7,141.3,613.7,139.7z
		 M618.1,142.8v-7.2h1.3v1c0.4-0.8,1.3-1.2,2.2-1.2s1.8,0.4,2.2,1.4c0.6-1,1.5-1.4,2.4-1.4c1.3,0,2.5,0.9,2.5,2.7v4.7h-1.4v-4.5
		c0-0.9-0.5-1.6-1.5-1.6s-1.7,0.8-1.7,1.8v4.4h-1.4v-4.5c0-0.9-0.5-1.6-1.5-1.6s-1.7,0.8-1.7,1.8v4.3L618.1,142.8L618.1,142.8z
		 M536.5,148.9l0.9,0.8c-1.5,1.7-2.5,3.8-2.5,6.4c0,2.6,1,4.7,2.5,6.4l-0.9,0.8c-1.6-1.6-2.9-3.9-2.9-7.2S534.9,150.5,536.5,148.9z
		 M541,156.7l2-0.3c0.4-0.1,0.6-0.3,0.6-0.5c0-0.7-0.5-1.3-1.6-1.3c-1,0-1.5,0.6-1.6,1.5l-1.3-0.3c0.2-1.4,1.4-2.3,3-2.3
		c2.2,0,3,1.2,3,2.6v3.6c0,0.6,0.1,1,0.1,1.2h-1.4c0-0.2-0.1-0.5-0.1-1c-0.3,0.5-1,1.2-2.3,1.2c-1.5,0-2.4-1-2.4-2.2
		C538.8,157.6,539.8,156.8,541,156.7z M543.5,157.7v-0.3l-2.2,0.3c-0.6,0.1-1,0.4-1,1.1c0,0.5,0.5,1,1.2,1
		C542.6,159.8,543.5,159.3,543.5,157.7z M548.7,157.2c0,1.6,1,2.5,2.2,2.5c1.3,0,1.8-0.9,2-1.5l1.2,0.5c-0.3,1-1.4,2.2-3.3,2.2
		c-2.1,0-3.6-1.7-3.6-3.8c0-2.2,1.6-3.8,3.6-3.8c1.9,0,2.9,1.2,3.2,2.3l-1.3,0.5c-0.2-0.7-0.7-1.5-1.9-1.5
		C549.8,154.7,548.7,155.5,548.7,157.2L548.7,157.2z M558.5,153.6h1.6v1.3h-1.6v3.8c0,0.7,0.3,1,1,1c0.2,0,0.4,0,0.6-0.1v1.2
		c-0.1,0-0.5,0.1-1,0.1c-1.2,0-2-0.8-2-2.1v-4h-1.4v-1.3h0.4c0.8,0,1.1-0.5,1.1-1.1v-1.2h1.3L558.5,153.6L558.5,153.6z M563.3,149.8
		c0.6,0,1,0.4,1,1s-0.5,1-1,1c-0.6,0-1-0.5-1-1S562.8,149.8,563.3,149.8z M562.6,160.8v-7.2h1.4v7.2H562.6z M570.5,160.8h-1.4
		l-2.9-7.2h1.6l2.1,5.6l2.1-5.6h1.5L570.5,160.8L570.5,160.8z M581.5,158.7c-0.4,1.3-1.6,2.3-3.2,2.3c-1.9,0-3.6-1.4-3.6-3.9
		c0-2.3,1.6-3.8,3.5-3.8c2.2,0,3.5,1.5,3.5,3.8v0.4h-5.4c0,1.3,1,2.2,2.2,2.2s1.8-0.6,2-1.5L581.5,158.7z M580.1,156.4
		c0-1-0.7-1.8-2-1.8c-1.2,0-1.9,0.9-2,1.8H580.1z M583.6,163.2l-0.9-0.8c1.5-1.7,2.5-3.8,2.5-6.4c0-2.6-1-4.7-2.5-6.4l0.9-0.8
		c1.6,1.6,2.8,3.9,2.8,7.2S585.2,161.6,583.6,163.2z"/>
	<path id="repo1_304_" class="st1" d="M529.2,316.6c0-6.3,14.2-11.3,31.8-11.3s31.8,5.1,31.8,11.3 M529.2,316.6v14.1
		c0,1.5,0.9,3,2.4,4.3c4.8,4.1,16.2,7,29.5,7s24.7-2.9,29.5-7c1.5-1.3,2.4-2.8,2.4-4.3v-14.1"/>
	<path class="st3" d="M592.9,316.6c0,6.3-14.2,11.3-31.8,11.3s-31.8-5.1-31.8-11.3c0-6.3,14.2-11.3,31.8-11.3
		S592.9,310.3,592.9,316.6z"/>
	<path id="repo1_303_" class="st1" d="M529.2,302.5c0-6.3,14.2-11.3,31.8-11.3s31.8,5.1,31.8,11.3 M529.2,302.5v14.1
		c0,1.5,0.9,3,2.4,4.3c4.8,4.1,16.2,7,29.5,7s24.7-2.9,29.5-7c1.5-1.3,2.4-2.8,2.4-4.3v-14.1"/>
	<path class="st3" d="M592.9,302.5c0,6.3-14.2,11.3-31.8,11.3s-31.8-5.1-31.8-11.3c0-6.3,14.2-11.3,31.8-11.3
		S592.9,296.2,592.9,302.5z"/>
	<path id="repo1_302_" class="st1" d="M529.2,288.4c0-6.3,14.2-11.3,31.8-11.3s31.8,5.1,31.8,11.3 M529.2,288.4v14.1
		c0,1.5,0.9,3,2.4,4.3c4.8,4.1,16.2,7,29.5,7s24.7-2.9,29.5-7c1.5-1.3,2.4-2.8,2.4-4.3v-14.1"/>
	<path class="st4" d="M592.9,288.4c0,6.3-14.2,11.3-31.8,11.3s-31.8-5.1-31.8-11.3c0-6.3,14.2-11.3,31.8-11.3
		S592.9,282.1,592.9,288.4z"/>
	<path class="st5" d="M569.9,59.9c3.1,6.8,9.9,11.2,17.3,11.2c7.5,0,14.3-4.4,17.4-11.3"/>
	<path class="st1" d="M586.8,104.1c0,0,27.4,0.8,37.7-5.2c17-9.9-0.3-30.2-13.7-33.6c-4.1,7.7-13.3,13-24,13h0.3
		c-10.7,0-19.8-5.4-24-13c-13.4,3.4-30.7,23.8-13.7,33.6c10.3,6,37.7,5.2,37.7,5.2"/>
	<circle class="st1" cx="587.2" cy="34.4" r="23"/>
	<path class="st4" d="M597.9,22.2c2.6,20,7.9,2.4,11.8,17c-2.2,10.4-11.4,18.2-22.5,18.2c-12.7,0-23-10.3-23-23
		c0-1.3,0.1-2.6,0.3-3.9C565.6,30.6,590.8,41.6,597.9,22.2z"/>
	<path class="st5" d="M599.8,54.7v10.6 M575.2,65.3V55 M496.4,66.8c3.1,6.8,9.9,11.2,17.3,11.2c7.5,0,14.3-4.4,17.4-11.3"/>
	<path class="st1" d="M513.3,111.1c0,0,27.4,0.8,37.7-5.2c17-9.9-0.3-30.2-13.7-33.6c-4.1,7.7-13.3,13-24,13h0.3
		c-10.7,0-19.8-5.4-24-13c-13.4,3.4-30.7,23.8-13.7,33.6c10.3,6,37.7,5.2,37.7,5.2"/>
	<circle class="st1" cx="513.7" cy="41.3" r="23"/>
	<path class="st4" d="M498.2,24.4c2.6,20,34.1,7.2,38,21.8c-2.2,10.4-11.4,18.2-22.5,18.2c-12.7,0-23-10.3-23-23
		c0-1.3,0.1-2.6,0.3-3.9C492.1,37.5,499.1,41.3,498.2,24.4z"/>
	<path class="st5" d="M526.3,61.6v10.6 M501.7,72.2V61.9"/>
	<path class="st2" d="M177.1,369.2c0-3.6,2.6-5.5,5.3-5.5c2.4,0,4.1,1.3,4.7,3.4l-1.4,0.5c-0.4-1.6-1.6-2.5-3.3-2.5
		c-1.9,0-3.8,1.4-3.8,4.2s1.8,4.2,3.8,4.2c1.8,0,3-1.1,3.4-2.6l1.3,0.5c-0.6,2-2.2,3.4-4.7,3.4C179.6,374.7,177.1,372.7,177.1,369.2
		z M195.6,372.4c-0.4,1.3-1.6,2.3-3.2,2.3c-1.9,0-3.6-1.4-3.6-3.9c0-2.3,1.6-3.8,3.5-3.8c2.2,0,3.5,1.5,3.5,3.8v0.4h-5.4
		c0,1.3,1,2.2,2.2,2.2s1.8-0.6,2-1.5L195.6,372.4z M194.1,370.1c0-1-0.7-1.8-2-1.8c-1.2,0-1.9,0.9-2,1.8H194.1z M199.6,374.5h-1.4
		v-7.2h1.4v1c0.5-0.9,1.4-1.2,2.2-1.2c1.7,0,2.6,1.2,2.6,2.9v4.6H203v-4.3c0-1-0.4-1.8-1.7-1.8c-1.1,0-1.7,0.9-1.7,2L199.6,374.5
		L199.6,374.5z M209.2,367.3h1.6v1.3h-1.6v3.8c0,0.7,0.3,1,1,1c0.2,0,0.4,0,0.6-0.1v1.2c-0.1,0-0.5,0.1-1,0.1c-1.2,0-2-0.8-2-2.1v-4
		h-1.4v-1.3h0.4c0.8,0,1.1-0.5,1.1-1.1V365h1.3L209.2,367.3L209.2,367.3z M217.3,368.7h-0.6c-1.2,0-2,0.6-2,2.2v3.6h-1.4v-7.2h1.4
		v1.3c0.5-1.1,1.4-1.4,2.2-1.4h0.5L217.3,368.7L217.3,368.7z M221.3,370.4l2-0.3c0.4-0.1,0.6-0.3,0.6-0.5c0-0.7-0.5-1.3-1.6-1.3
		c-1,0-1.5,0.6-1.6,1.5l-1.3-0.3c0.1-1.4,1.4-2.3,3-2.3c2.2,0,3,1.2,3,2.6v3.6c0,0.6,0.1,1,0.1,1.2h-1.4c0-0.2-0.1-0.5-0.1-1
		c-0.3,0.5-1,1.2-2.3,1.2c-1.5,0-2.4-1-2.4-2.2C219.1,371.3,220,370.5,221.3,370.4L221.3,370.4z M223.8,371.4v-0.3l-2.2,0.3
		c-0.6,0.1-1.1,0.4-1.1,1.1c0,0.5,0.5,1,1.2,1C222.8,373.5,223.8,373,223.8,371.4z M228.1,374.5v-10.9h1.4v10.9H228.1z M175.2,384.7
		c-0.1-0.8-0.8-1.8-2.2-1.8c-1.2,0-2.1,0.8-2.1,1.8c0,0.8,0.5,1.4,1.4,1.5l1.6,0.3c1.8,0.4,2.8,1.5,2.8,3c0,1.7-1.4,3.2-3.7,3.2
		c-2.6,0-3.8-1.7-4-3.2l1.4-0.5c0.1,1.2,0.9,2.3,2.5,2.3c1.5,0,2.2-0.8,2.2-1.7c0-0.8-0.5-1.4-1.6-1.7l-1.5-0.3
		c-1.5-0.3-2.6-1.3-2.6-2.9c0-1.7,1.5-3.2,3.5-3.2c2.4,0,3.4,1.5,3.6,2.6L175.2,384.7L175.2,384.7z M186.2,381.8h1.5l-4.1,10.6h-1.5
		l-4-10.6h1.6l3.2,8.7L186.2,381.8z M197.2,392.5l-5.7-8.7v8.7H190v-10.6h2l5.3,8.2v-8.2h1.5v10.6H197.2z M210.6,386.7H210
		c-1.2,0-2,0.6-2,2.2v3.6h-1.4v-7.2h1.4v1.3c0.5-1.1,1.4-1.4,2.2-1.4h0.5L210.6,386.7L210.6,386.7z M219,390.4
		c-0.4,1.3-1.6,2.3-3.2,2.3c-1.9,0-3.6-1.4-3.6-3.9c0-2.3,1.6-3.8,3.5-3.8c2.2,0,3.5,1.5,3.5,3.8v0.4h-5.4c0,1.3,1,2.2,2.2,2.2
		s1.8-0.6,2-1.5L219,390.4z M217.6,388.1c0-1-0.7-1.8-2-1.8c-1.2,0-1.9,0.9-2,1.8H217.6z M221.6,395.3v-10.1h1.4v1.1
		c0.4-0.7,1.2-1.3,2.4-1.3c2.2,0,3.3,1.7,3.3,3.8c0,2.1-1.2,3.8-3.4,3.8c-1.1,0-1.9-0.5-2.3-1.2v3.8h-1.4V395.3z M225.2,386.3
		c-1.3,0-2.1,1.1-2.1,2.5c0,1.5,0.9,2.5,2.1,2.5c1.3,0,2.1-1.1,2.1-2.5S226.5,386.3,225.2,386.3z M238.1,388.9
		c0,2.2-1.5,3.8-3.7,3.8s-3.7-1.6-3.7-3.8c0-2.2,1.5-3.8,3.7-3.8S238.1,386.7,238.1,388.9z M236.6,388.9c0-1.7-1-2.6-2.2-2.6
		s-2.2,0.9-2.2,2.6s1.1,2.6,2.2,2.6C235.6,391.4,236.6,390.5,236.6,388.9z M177.2,398.6l0.9,0.8c-1.5,1.7-2.5,3.8-2.5,6.4
		s1,4.7,2.5,6.4l-0.9,0.8c-1.6-1.6-2.8-3.9-2.8-7.2C174.3,402.5,175.6,400.2,177.2,398.6L177.2,398.6z M184,404.7h-0.6
		c-1.2,0-2,0.6-2,2.2v3.6H180v-7.2h1.4v1.3c0.5-1.1,1.4-1.4,2.2-1.4h0.5L184,404.7L184,404.7z M192.4,408.4
		c-0.4,1.3-1.6,2.3-3.2,2.3c-1.9,0-3.6-1.4-3.6-3.9c0-2.3,1.6-3.8,3.4-3.8c2.2,0,3.5,1.5,3.5,3.8v0.4H187c0,1.3,1,2.2,2.2,2.2
		s1.8-0.6,2-1.5L192.4,408.4L192.4,408.4z M191,406.1c0-1-0.7-1.8-2-1.8c-1.2,0-1.9,0.9-2,1.8H191z M196.9,403.3h1.6v1.3h-1.6v3.8
		c0,0.7,0.3,1,1,1c0.2,0,0.4,0,0.6-0.1v1.2c-0.1,0-0.5,0.1-1,0.1c-1.2,0-2-0.8-2-2.1v-4h-1.4v-1.3h0.4c0.8,0,1.1-0.5,1.1-1.1V401
		h1.3L196.9,403.3L196.9,403.3z M201.8,399.5c0.6,0,1,0.4,1,1s-0.5,1-1,1c-0.6,0-1-0.5-1-1S201.2,399.5,201.8,399.5z M201.1,410.5
		v-7.2h1.4v7.2H201.1z M209.7,404.7h-0.6c-1.2,0-2,0.6-2,2.2v3.6h-1.4v-7.2h1.4v1.3c0.5-1.1,1.4-1.4,2.2-1.4h0.5L209.7,404.7
		L209.7,404.7z M218.1,408.4c-0.4,1.3-1.6,2.3-3.2,2.3c-1.9,0-3.6-1.4-3.6-3.9c0-2.3,1.6-3.8,3.4-3.8c2.2,0,3.5,1.5,3.5,3.8v0.4
		h-5.4c0,1.3,1,2.2,2.2,2.2s1.8-0.6,2-1.5L218.1,408.4z M216.7,406.1c0-1-0.7-1.8-2-1.8c-1.2,0-1.9,0.9-2,1.8H216.7z M225.8,409.4
		c-0.3,0.7-1.1,1.3-2.2,1.3c-2.1,0-3.4-1.7-3.4-3.8c0-2,1.4-3.8,3.4-3.8c1.3,0,2,0.6,2.2,1.2v-4.7h1.4v9.5c0,0.7,0.1,1.2,0.1,1.3
		h-1.4C225.9,410.2,225.8,409.9,225.8,409.4z M223.7,409.4c1.3,0,2.1-1.1,2.1-2.6s-0.8-2.5-2.1-2.5s-2.1,1-2.1,2.5
		C221.5,408.3,222.3,409.4,223.7,409.4z M229.9,412.9l-0.9-0.8c1.5-1.7,2.5-3.8,2.5-6.4s-1-4.7-2.5-6.4l0.9-0.8
		c1.6,1.6,2.8,3.9,2.8,7.2C232.8,409,231.5,411.2,229.9,412.9L229.9,412.9z"/>
	<path id="repo1_307_" class="st4" d="M171.7,317c0-6.3,14.2-11.3,31.8-11.3s31.8,5.1,31.8,11.3 M171.7,317v14.1
		c0,1.5,0.9,3,2.4,4.3c4.8,4.1,16.2,7,29.5,7s24.7-2.9,29.5-7c1.5-1.3,2.4-2.8,2.4-4.3V317"/>
	<path class="st4" d="M235.4,317c0,6.3-14.2,11.3-31.8,11.3s-31.8-5.1-31.8-11.3c0-6.3,14.2-11.3,31.8-11.3S235.4,310.7,235.4,317z"
		/>
	<path id="repo1_306_" class="st4" d="M171.7,302.9c0-6.3,14.2-11.3,31.8-11.3s31.8,5.1,31.8,11.3 M171.7,302.9V317
		c0,1.5,0.9,3,2.4,4.3c4.8,4.1,16.2,7,29.5,7s24.7-2.9,29.5-7c1.5-1.3,2.4-2.8,2.4-4.3v-14.1"/>
	<path class="st4" d="M235.4,302.9c0,6.3-14.2,11.3-31.8,11.3s-31.8-5.1-31.8-11.3c0-6.3,14.2-11.3,31.8-11.3
		S235.4,296.6,235.4,302.9z"/>
	<path id="repo1_305_" class="st4" d="M171.7,288.8c0-6.3,14.2-11.3,31.8-11.3s31.8,5.1,31.8,11.3 M171.7,288.8v14.1
		c0,1.5,0.9,3,2.4,4.3c4.8,4.1,16.2,7,29.5,7s24.7-2.9,29.5-7c1.5-1.3,2.4-2.8,2.4-4.3v-14.1"/>
	<path class="st4" d="M235.4,288.8c0,6.3-14.2,11.3-31.8,11.3s-31.8-5.1-31.8-11.3c0-6.3,14.2-11.3,31.8-11.3
		S235.4,282.5,235.4,288.8z"/>
</g>
<path class="st2" d="M551.4,366.9c-1.2,0-2.1,0.6-2.4,1.2v-4.6h-1.4v10.6v0.1h1.4v-1c0.4,0.7,1.2,1.2,2.3,1.2c2.2,0,3.3-1.7,3.3-3.7
	S553.6,366.9,551.4,366.9z M551.2,373.1c-1.2,0-2.1-1-2.1-2.6c0-1.5,0.9-2.5,2.1-2.5c1.3,0,2.1,0.9,2.1,2.5S552.5,373.1,551.2,373.1
	z"/>
</svg>
